<svg width="55" height="55" viewBox="0 0 55 55" fill="none" xmlns="http://www.w3.org/2000/svg">
<path d="M17.1875 0C11.4921 0 6.875 4.61708 6.875 10.3125V22.6865C9.45337 21.3685 12.3742 20.625 15.4688 20.625C25.9104 20.625 34.375 29.0895 34.375 39.5312C34.375 42.6257 33.6315 45.5465 32.3135 48.125H44.6875C50.3831 48.125 55 43.5081 55 37.8125V10.3125C55 4.61708 50.3831 0 44.6875 0H17.1875ZM32.6562 10.3125C33.6053 10.3125 34.375 11.082 34.375 12.0312V20.625H39.5312C40.4803 20.625 41.25 21.3945 41.25 22.3438C41.25 23.293 40.4803 24.0625 39.5312 24.0625H32.6562C31.7072 24.0625 30.9375 23.293 30.9375 22.3438V12.0312C30.9375 11.082 31.7072 10.3125 32.6562 10.3125ZM30.9375 39.5312C30.9375 48.0745 24.0119 55 15.4688 55C6.9256 55 0 48.0745 0 39.5312C0 30.988 6.9256 24.0625 15.4688 24.0625C24.0119 24.0625 30.9375 30.988 30.9375 39.5312ZM17.1875 32.6562C17.1875 31.7072 16.418 30.9375 15.4688 30.9375C14.5195 30.9375 13.75 31.7072 13.75 32.6562V37.8125H8.59375C7.64452 37.8125 6.875 38.5822 6.875 39.5312C6.875 40.4803 7.64452 41.25 8.59375 41.25H13.75V46.4062C13.75 47.3553 14.5195 48.125 15.4688 48.125C16.418 48.125 17.1875 47.3553 17.1875 46.4062V41.25H22.3438C23.293 41.25 24.0625 40.4803 24.0625 39.5312C24.0625 38.5822 23.293 37.8125 22.3438 37.8125H17.1875V32.6562Z" fill="white"/>
</svg>
