<svg width="55" height="55" viewBox="0 0 55 55" fill="none" xmlns="http://www.w3.org/2000/svg">
<path d="M31.0979 51.2875C30.5708 51.2875 30.0437 51.1958 29.5396 51.0125C27.8208 50.3708 26.7208 48.7666 26.7208 46.9333V32.1521H21.3583C19.6166 32.1521 18.1041 31.1667 17.3937 29.5854C16.6833 28.0042 16.9583 26.2167 18.1041 24.9104L35.452 5.20207C36.6666 3.82707 38.5458 3.34582 40.2646 4.0104C41.9833 4.65207 43.0833 6.25623 43.0833 8.08957V22.8708H48.4458C50.1875 22.8708 51.6999 23.8562 52.4104 25.4375C53.1208 27.0187 52.8458 28.8062 51.6999 30.1125L34.352 49.8208C33.5041 50.7833 32.3125 51.2875 31.0979 51.2875ZM38.6833 7.14998C38.477 7.14998 38.2249 7.21873 38.0187 7.47082L20.6708 27.2021C20.3041 27.6146 20.4416 28.0271 20.5104 28.1875C20.5791 28.3479 20.8083 28.7375 21.3583 28.7375H28.4395C29.3791 28.7375 30.1583 29.5167 30.1583 30.4562V46.9562C30.1583 47.5291 30.5708 47.7583 30.7542 47.8271C30.9375 47.8958 31.3958 48.0104 31.7624 47.575L49.1104 27.8437C49.477 27.4312 49.3395 27.0187 49.2708 26.8583C49.202 26.6979 48.9729 26.3083 48.4229 26.3083H41.3416C40.4021 26.3083 39.6229 25.5292 39.6229 24.5896V8.08957C39.6229 7.51665 39.2104 7.28748 39.027 7.21873C38.9583 7.1729 38.8208 7.14998 38.6833 7.14998Z" fill="white"/>
<path d="M19.4792 10.8854H3.4375C2.49792 10.8854 1.71875 10.1063 1.71875 9.16669C1.71875 8.2271 2.49792 7.44794 3.4375 7.44794H19.4792C20.4187 7.44794 21.1979 8.2271 21.1979 9.16669C21.1979 10.1063 20.4187 10.8854 19.4792 10.8854Z" fill="white"/>
<path d="M17.1875 47.5521H3.4375C2.49792 47.5521 1.71875 46.7729 1.71875 45.8333C1.71875 44.8937 2.49792 44.1146 3.4375 44.1146H17.1875C18.1271 44.1146 18.9062 44.8937 18.9062 45.8333C18.9062 46.7729 18.1271 47.5521 17.1875 47.5521Z" fill="white"/>
<path d="M10.3125 29.2188H3.4375C2.49792 29.2188 1.71875 28.4396 1.71875 27.5C1.71875 26.5604 2.49792 25.7812 3.4375 25.7812H10.3125C11.2521 25.7812 12.0312 26.5604 12.0312 27.5C12.0312 28.4396 11.2521 29.2188 10.3125 29.2188Z" fill="white"/>
</svg>
