<svg width="201" height="240" viewBox="0 0 201 240" fill="none" xmlns="http://www.w3.org/2000/svg">
<ellipse cx="93.7405" cy="162.407" rx="50.7131" ry="27.047" fill="#414141"/>
<path d="M54.1276 76.3518H154.705V161.982H54.1276V76.3518Z" fill="#D1F5F9" stroke="black" stroke-width="0.848901"/>
<path d="M153.675 67.8214C154.066 67.9291 154.373 68.0154 154.591 68.0771V68.0841V68.0958V68.1077V68.1197V68.1319V68.1442V68.1566V68.1692V68.182V68.1949V68.2079V68.2211V68.2345V68.2479V68.2616V68.2753V68.2892V68.3033V68.3175V68.3318V68.3463V68.3609V68.3756V68.3905V68.4055V68.4207V68.436V68.4514V68.467V68.4827V68.4985V68.5145V68.5306V68.5469V68.5632V68.5797V68.5964V68.6131V68.63V68.647V68.6642V68.6814V68.6988V68.7164V68.734V68.7518V68.7697V68.7877V68.8059V68.8241V68.8425V68.861V68.8797V68.8984V68.9173V68.9363V68.9554V68.9746V68.994V69.0135V69.033V69.0527V69.0726V69.0925V69.1125V69.1327V69.153V69.1733V69.1938V69.2144V69.2351V69.256V69.2769V69.2979V69.3191V69.3403V69.3617V69.3832V69.4048V69.4264V69.4482V69.4701V69.4921V69.5142V69.5364V69.5587V69.5811V69.6036V69.6262V69.6489V69.6717V69.6946V69.7176V69.7407V69.7639V69.7871V69.8105V69.834V69.8576V69.8812V69.905V69.9288V69.9527V69.9768V70.0009V70.0251V70.0494V70.0738V70.0982V70.1228V70.1475V70.1722V70.197V70.2219V70.2469V70.272V70.2971V70.3224V70.3477V70.3731V70.3986V70.4241V70.4498V70.4755V70.5013V70.5272V70.5531V70.5792V70.6053V70.6315V70.6577V70.684V70.7105V70.7369V70.7635V70.7901V70.8168V70.8436V70.8704V70.8973V70.9243V70.9514V70.9785V71.0057V71.0329V71.0602V71.0876V71.115V71.1426V71.1701V71.1978V71.2255V71.2532V71.281V71.3089V71.3369V71.3649V71.3929V71.4211V71.4492V71.4775V71.5058V71.5341V71.5625V71.591V71.6195V71.6481V71.6767V71.7054V71.7341V71.7629V71.7917V71.8206V71.8495V71.8785V71.9075V71.9366V71.9657V71.9949V72.0241V72.0534V72.0827V72.112V72.1414V72.1709V72.2003V72.2299V72.2594V72.289V72.3187V72.3483V72.3781V72.4078V72.4376V72.4675V72.4973V72.5273V72.5572V72.5872V72.6172V72.6472V72.6773V72.7074V72.7376V72.7678V72.798V72.8282V72.8585V72.8888V72.9191V72.9495V72.9798V73.0102V73.0407V73.0711V73.1016V73.1321V73.1627V73.1932V73.2238V73.2544V73.285V73.3157V73.3463V73.377V73.4077V73.4384V73.4692V73.4999V73.5307V73.5615V73.5923V73.6231V73.6539V73.6848V73.7156V73.7465V73.7774V73.8083V73.8392V73.8701V73.9011V73.932V73.9629V73.9939V74.0248V74.0558V74.0868V74.1178V74.1487V74.1797V74.2107V74.2417V74.2727V74.3037V74.3347V74.3657V74.3967V74.4277V74.4587V74.4897V74.5207V74.5517V74.5827V74.6137V74.6446V74.6756V74.7066V74.7375V74.7685V74.7995V74.8304V74.8613V74.8923V74.9232V74.9541V74.985V75.0158V75.0467V75.0776V75.1084V75.1392V75.17V75.2008V75.2316V75.2624V75.2931V75.3239V75.3546V75.3853V75.416V75.4466V75.4773V75.5079V75.5385V75.569V75.5996V75.6301V75.6606V75.6911V75.7215V75.752V75.7824V75.8127V75.8431V75.8734V75.9037V75.9339V75.9642V75.9944V76.0245V76.0547V76.0848V76.1148V76.1449V76.1749V76.2048V76.2348V76.2647V76.2945V76.3244V76.3541V76.3839V76.4136V76.4433V76.4729V76.5025V76.532V76.5616V76.591V76.6204V76.6498V76.6792V76.7084V76.7377V76.7669V76.796V76.8251V76.8542V76.8832V76.9122V76.9411V76.97V76.9988V77.0275V77.0562V77.0849V77.1135V77.142V77.1705V77.199V77.2274V77.2557V77.284V77.3122V77.3404V77.3685V77.3965V77.4245V77.4524V77.4803V77.5081V77.5358V77.5635V77.5911V77.6187V77.6461V77.6736V77.7009V77.7282V77.7554V77.7826V77.8097V77.8367V77.8637V77.8906V77.9174V77.9441V77.9708V77.9974V78.0239V78.0504V78.0768V78.1031V78.1293V78.1555V78.1815V78.2075V78.2335V78.2593V78.2851V78.3108V78.3364V78.3619V78.3874V78.4128V78.4381V78.4633V78.4884V78.5134V78.5384V78.5633V78.5881V78.6128V78.6374V78.6619V78.6864V78.7107V78.735V78.7592V78.7832V78.8072V78.8311V78.855V78.8787V78.9023V78.9258V78.9493V78.9726V78.9959V79.019V79.0421V79.065V79.0879V79.1107V79.1333V79.1559V79.1784V79.2007V79.223V79.2452V79.2672V79.2892V79.311V79.3328V79.3544V79.376V79.3974V79.4187V79.4399V79.4611V79.4821V79.5029V79.5237V79.5444C154.591 87.0081 149.042 93.8829 139.808 98.923C130.595 103.952 117.831 107.079 103.702 107.079C89.5737 107.079 76.8092 103.952 67.596 98.923C58.3626 93.8829 52.813 87.0081 52.813 79.5444V79.5237V79.5029V79.4821V79.4611V79.4399V79.4187V79.3974V79.376V79.3544V79.3328V79.311V79.2892V79.2672V79.2452V79.223V79.2007V79.1784V79.1559V79.1333V79.1107V79.0879V79.065V79.0421V79.019V78.9959V78.9726V78.9493V78.9258V78.9023V78.8787V78.855V78.8311V78.8072V78.7832V78.7592V78.735V78.7107V78.6864V78.6619V78.6374V78.6128V78.5881V78.5633V78.5384V78.5134V78.4884V78.4633V78.4381V78.4128V78.3874V78.3619V78.3364V78.3108V78.2851V78.2593V78.2335V78.2075V78.1815V78.1555V78.1293V78.1031V78.0768V78.0504V78.0239V77.9974V77.9708V77.9441V77.9174V77.8906V77.8637V77.8367V77.8097V77.7826V77.7554V77.7282V77.7009V77.6736V77.6461V77.6187V77.5911V77.5635V77.5358V77.5081V77.4803V77.4524V77.4245V77.3965V77.3685V77.3404V77.3122V77.284V77.2557V77.2274V77.199V77.1705V77.142V77.1135V77.0849V77.0562V77.0275V76.9988V76.97V76.9411V76.9122V76.8832V76.8542V76.8251V76.796V76.7669V76.7377V76.7084V76.6792V76.6498V76.6204V76.591V76.5616V76.532V76.5025V76.4729V76.4433V76.4136V76.3839V76.3541V76.3244V76.2945V76.2647V76.2348V76.2048V76.1749V76.1449V76.1148V76.0848V76.0547V76.0245V75.9944V75.9642V75.9339V75.9037V75.8734V75.8431V75.8127V75.7824V75.752V75.7215V75.6911V75.6606V75.6301V75.5996V75.569V75.5385V75.5079V75.4773V75.4466V75.416V75.3853V75.3546V75.3239V75.2931V75.2624V75.2316V75.2008V75.17V75.1392V75.1084V75.0776V75.0467V75.0158V74.985V74.9541V74.9232V74.8923V74.8613V74.8304V74.7995V74.7685V74.7375V74.7066V74.6756V74.6446V74.6137V74.5827V74.5517V74.5207V74.4897V74.4587V74.4277V74.3967V74.3657V74.3347V74.3037V74.2727V74.2417V74.2107V74.1797V74.1487V74.1178V74.0868V74.0558V74.0248V73.9939V73.9629V73.932V73.9011V73.8701V73.8392V73.8083V73.7774V73.7465V73.7156V73.6848V73.6539V73.6231V73.5923V73.5615V73.5307V73.4999V73.4692V73.4384V73.4077V73.377V73.3463V73.3157V73.285V73.2544V73.2238V73.1932V73.1627V73.1321V73.1016V73.0711V73.0407V73.0102V72.9798V72.9495V72.9191V72.8888V72.8585V72.8282V72.798V72.7678V72.7376V72.7074V72.6773V72.6472V72.6172V72.5872V72.5572V72.5273V72.4973V72.4675V72.4376V72.4078V72.3781V72.3483V72.3187V72.289V72.2594V72.2299V72.2003V72.1709V72.1414V72.112V72.0827V72.0534V72.0241V71.9949V71.9657V71.9366V71.9075V71.8785V71.8495V71.8206V71.7917V71.7629V71.7341V71.7054V71.6767V71.6481V71.6195V71.591V71.5625V71.5341V71.5058V71.4775V71.4492V71.4211V71.3929V71.3649V71.3369V71.3089V71.281V71.2532V71.2255V71.1978V71.1701V71.1426V71.115V71.0876V71.0602V71.0329V71.0057V70.9785V70.9514V70.9243V70.8973V70.8704V70.8436V70.8168V70.7901V70.7635V70.7369V70.7105V70.684V70.6577V70.6315V70.6053V70.5792V70.5531V70.5272V70.5013V70.4755V70.4498V70.4241V70.3986V70.3731V70.3477V70.3224V70.2971V70.272V70.2469V70.2219V70.197V70.1722V70.1475V70.1228V70.0982V70.0738V70.0494V70.0251V70.0009V69.9768V69.9527V69.9288V69.905V69.8812V69.8576V69.834V69.8105V69.7871V69.7639V69.7407V69.7176V69.6946V69.6717V69.6489V69.6262V69.6036V69.5811V69.5587V69.5364V69.5142V69.4921V69.4701V69.4482V69.4264V69.4048V69.3832V69.3617V69.3403V69.3191V69.2979V69.2769V69.256V69.2351V69.2144V69.1938V69.1733V69.153V69.1327V69.1125V69.0925V69.0726V69.0527V69.033V69.0135V68.994V68.9746V68.9554V68.9363V68.9173V68.8984V68.8797V68.861V68.8425V68.8241V68.8059V68.7877V68.7697V68.7518V68.734V68.7164V68.6988V68.6814V68.6642V68.647V68.63V68.6131V68.5964V68.5797V68.5632V68.5469V68.5306V68.5145V68.4985V68.4827V68.467V68.4514V68.436V68.4207V68.4055V68.3905V68.3756V68.3609V68.3463V68.3318V68.3175V68.3033V68.2892V68.2753V68.2616V68.2479V68.2345V68.2211V68.2079V68.1949V68.182V68.1692V68.1566V68.1442V68.1319V68.1197V68.1077V68.0958V68.0841V68.0771C53.0311 68.0154 53.3388 67.9291 53.729 67.8214C54.5752 67.5879 55.8094 67.2542 57.3593 66.8535C60.4593 66.0522 64.8213 64.9837 69.868 63.9152C79.9694 61.7764 92.782 59.6449 103.702 59.6449C114.622 59.6449 127.435 61.7764 137.536 63.9152C142.583 64.9837 146.945 66.0522 150.045 66.8535C151.595 67.2542 152.829 67.5879 153.675 67.8214Z" fill="#6A6A6A" stroke="black" stroke-width="1.07132"/>
<path d="M154.591 68.7654C154.591 76.2291 149.042 83.1039 139.808 88.1439C130.595 93.173 117.831 96.3001 103.702 96.3001C89.5737 96.3001 76.8092 93.173 67.596 88.1439C58.3626 83.1039 52.813 76.2291 52.813 68.7654C52.813 61.3017 58.3626 54.4268 67.596 49.3868C76.8092 44.3578 89.5737 41.2307 103.702 41.2307C117.831 41.2307 130.595 44.3578 139.808 49.3868C149.042 54.4268 154.591 61.3017 154.591 68.7654Z" fill="#8F8F8F" stroke="black" stroke-width="1.07132"/>
<path d="M154.594 161.339C154.594 168.514 149.132 175.134 140.024 179.991C130.938 184.837 118.35 187.85 104.416 187.85C90.4823 187.85 77.8941 184.837 68.8087 179.991C59.7003 175.134 54.2388 168.514 54.2388 161.339C54.2388 154.164 59.7003 147.544 68.8087 142.686C77.8941 137.841 90.4823 134.828 104.416 134.828C118.35 134.828 130.938 137.841 140.024 142.686C149.132 147.544 154.594 154.164 154.594 161.339Z" fill="#D1F5F9" stroke="black" stroke-width="1.07132"/>
<ellipse cx="93.7405" cy="162.407" rx="50.7131" ry="27.047" fill="#414141" fill-opacity="0.13"/>
<path d="M143.304 58.2749C143.613 58.3602 143.857 58.4286 144.029 58.4775V58.4831V58.4924V58.5018V58.5113V58.5209V58.5307V58.5405V58.5505V58.5606V58.5709V58.5812V58.5916V58.6022V58.6129V58.6237V58.6346V58.6456V58.6567V58.668V58.6793V58.6908V58.7024V58.7141V58.7259V58.7378V58.7498V58.7619V58.7741V58.7865V58.7989V58.8115V58.8241V58.8369V58.8498V58.8627V58.8758V58.889V58.9022V58.9156V58.9291V58.9427V58.9564V58.9702V58.9841V58.998V59.0121V59.0263V59.0406V59.055V59.0695V59.084V59.0987V59.1135V59.1283V59.1433V59.1583V59.1735V59.1887V59.2041V59.2195V59.235V59.2506V59.2663V59.2821V59.298V59.314V59.33V59.3462V59.3624V59.3787V59.3951V59.4116V59.4282V59.4449V59.4617V59.4785V59.4954V59.5124V59.5295V59.5467V59.564V59.5813V59.5987V59.6163V59.6338V59.6515V59.6693V59.6871V59.705V59.723V59.7411V59.7592V59.7774V59.7957V59.8141V59.8325V59.8511V59.8697V59.8883V59.9071V59.9259V59.9448V59.9638V59.9828V60.0019V60.0211V60.0403V60.0597V60.0791V60.0985V60.118V60.1376V60.1573V60.177V60.1968V60.2167V60.2366V60.2566V60.2767V60.2968V60.317V60.3373V60.3576V60.378V60.3984V60.4189V60.4395V60.4601V60.4808V60.5016V60.5224V60.5432V60.5642V60.5851V60.6062V60.6273V60.6484V60.6696V60.6909V60.7122V60.7336V60.755V60.7765V60.7981V60.8197V60.8413V60.863V60.8847V60.9065V60.9284V60.9503V60.9722V60.9942V61.0163V61.0384V61.0605V61.0827V61.105V61.1272V61.1496V61.1719V61.1944V61.2168V61.2393V61.2619V61.2845V61.3071V61.3298V61.3525V61.3753V61.3981V61.4209V61.4438V61.4667V61.4897V61.5127V61.5357V61.5588V61.5819V61.6051V61.6283V61.6515V61.6747V61.698V61.7214V61.7447V61.7681V61.7915V61.815V61.8385V61.862V61.8856V61.9091V61.9328V61.9564V61.9801V62.0038V62.0275V62.0513V62.075V62.0988V62.1227V62.1465V62.1704V62.1943V62.2183V62.2422V62.2662V62.2902V62.3143V62.3383V62.3624V62.3865V62.4106V62.4347V62.4589V62.4831V62.5073V62.5315V62.5557V62.58V62.6042V62.6285V62.6528V62.6771V62.7014V62.7258V62.7501V62.7745V62.7989V62.8233V62.8477V62.8721V62.8965V62.921V62.9454V62.9699V62.9944V63.0189V63.0433V63.0678V63.0923V63.1169V63.1414V63.1659V63.1904V63.215V63.2395V63.2641V63.2886V63.3132V63.3377V63.3623V63.3868V63.4114V63.436V63.4605V63.4851V63.5097V63.5342V63.5588V63.5833V63.6079V63.6325V63.657V63.6816V63.7061V63.7306V63.7552V63.7797V63.8042V63.8287V63.8533V63.8778V63.9023V63.9267V63.9512V63.9757V64.0002V64.0246V64.049V64.0735V64.0979V64.1223V64.1467V64.1711V64.1954V64.2198V64.2441V64.2684V64.2927V64.317V64.3413V64.3656V64.3898V64.414V64.4382V64.4624V64.4866V64.5107V64.5349V64.559V64.5831V64.6071V64.6312V64.6552V64.6792V64.7032V64.7271V64.7511V64.775V64.7988V64.8227V64.8465V64.8703V64.8941V64.9178V64.9416V64.9653V64.9889V65.0125V65.0362V65.0597V65.0833V65.1068V65.1303V65.1537V65.1771V65.2005V65.2238V65.2472V65.2704V65.2937V65.3169V65.3401V65.3632V65.3863V65.4094V65.4324V65.4554V65.4783V65.5012V65.5241V65.5469V65.5697V65.5925V65.6152V65.6378V65.6605V65.6831V65.7056V65.7281V65.7505V65.7729V65.7953V65.8176V65.8399V65.8621V65.8843V65.9064V65.9285V65.9505V65.9725V65.9944V66.0163V66.0381V66.0599V66.0816V66.1033V66.1249V66.1465V66.168V66.1895V66.2109V66.2323V66.2536V66.2748V66.296V66.3172V66.3382V66.3593V66.3802V66.4011V66.422V66.4428V66.4635V66.4842V66.5048V66.5253V66.5458V66.5662V66.5866V66.6069V66.6271V66.6473V66.6674V66.6874V66.7074V66.7273V66.7472V66.7669V66.7866V66.8063V66.8259V66.8454V66.8648V66.8842V66.9035V66.9227V66.9419V66.9609V66.9799V66.9989V67.0178V67.0366V67.0553V67.0739V67.0925V67.111V67.1294V67.1478V67.166V67.1842V67.2023V67.2204V67.2383V67.2562V67.274V67.2917V67.3094V67.3269V67.3444V67.3618V67.3791V67.3964V67.4135V67.4306V67.4476V67.4645V67.4813V67.498V67.5147V67.5312V67.5477V67.5641C144.029 73.4782 139.632 78.9257 132.316 82.9194C125.015 86.9044 114.901 89.3822 103.705 89.3822C92.5102 89.3822 82.3958 86.9044 75.0953 82.9194C67.7789 78.9257 63.3815 73.4782 63.3815 67.5641V67.5477V67.5312V67.5147V67.498V67.4813V67.4645V67.4476V67.4306V67.4135V67.3964V67.3791V67.3618V67.3444V67.3269V67.3094V67.2917V67.274V67.2562V67.2383V67.2204V67.2023V67.1842V67.166V67.1478V67.1294V67.111V67.0925V67.0739V67.0553V67.0366V67.0178V66.9989V66.9799V66.9609V66.9419V66.9227V66.9035V66.8842V66.8648V66.8454V66.8259V66.8063V66.7866V66.7669V66.7472V66.7273V66.7074V66.6874V66.6674V66.6473V66.6271V66.6069V66.5866V66.5662V66.5458V66.5253V66.5048V66.4842V66.4635V66.4428V66.422V66.4011V66.3802V66.3593V66.3382V66.3172V66.296V66.2748V66.2536V66.2323V66.2109V66.1895V66.168V66.1465V66.1249V66.1033V66.0816V66.0599V66.0381V66.0163V65.9944V65.9725V65.9505V65.9285V65.9064V65.8843V65.8621V65.8399V65.8176V65.7953V65.7729V65.7505V65.7281V65.7056V65.6831V65.6605V65.6378V65.6152V65.5925V65.5697V65.5469V65.5241V65.5012V65.4783V65.4554V65.4324V65.4094V65.3863V65.3632V65.3401V65.3169V65.2937V65.2704V65.2472V65.2238V65.2005V65.1771V65.1537V65.1303V65.1068V65.0833V65.0597V65.0362V65.0125V64.9889V64.9653V64.9416V64.9178V64.8941V64.8703V64.8465V64.8227V64.7988V64.775V64.7511V64.7271V64.7032V64.6792V64.6552V64.6312V64.6071V64.5831V64.559V64.5349V64.5107V64.4866V64.4624V64.4382V64.414V64.3898V64.3656V64.3413V64.317V64.2927V64.2684V64.2441V64.2198V64.1954V64.1711V64.1467V64.1223V64.0979V64.0735V64.049V64.0246V64.0002V63.9757V63.9512V63.9267V63.9023V63.8778V63.8533V63.8287V63.8042V63.7797V63.7552V63.7306V63.7061V63.6816V63.657V63.6325V63.6079V63.5833V63.5588V63.5342V63.5097V63.4851V63.4605V63.436V63.4114V63.3868V63.3623V63.3377V63.3132V63.2886V63.2641V63.2395V63.215V63.1904V63.1659V63.1414V63.1169V63.0923V63.0678V63.0433V63.0189V62.9944V62.9699V62.9454V62.921V62.8965V62.8721V62.8477V62.8233V62.7989V62.7745V62.7501V62.7258V62.7014V62.6771V62.6528V62.6285V62.6042V62.58V62.5557V62.5315V62.5073V62.4831V62.4589V62.4347V62.4106V62.3865V62.3624V62.3383V62.3143V62.2902V62.2662V62.2422V62.2183V62.1943V62.1704V62.1465V62.1227V62.0988V62.075V62.0513V62.0275V62.0038V61.9801V61.9564V61.9328V61.9091V61.8856V61.862V61.8385V61.815V61.7915V61.7681V61.7447V61.7214V61.698V61.6747V61.6515V61.6283V61.6051V61.5819V61.5588V61.5357V61.5127V61.4897V61.4667V61.4438V61.4209V61.3981V61.3753V61.3525V61.3298V61.3071V61.2845V61.2619V61.2393V61.2168V61.1944V61.1719V61.1496V61.1272V61.105V61.0827V61.0605V61.0384V61.0163V60.9942V60.9722V60.9503V60.9284V60.9065V60.8847V60.863V60.8413V60.8197V60.7981V60.7765V60.755V60.7336V60.7122V60.6909V60.6696V60.6484V60.6273V60.6062V60.5851V60.5642V60.5432V60.5224V60.5016V60.4808V60.4601V60.4395V60.4189V60.3984V60.378V60.3576V60.3373V60.317V60.2968V60.2767V60.2566V60.2366V60.2167V60.1968V60.177V60.1573V60.1376V60.118V60.0985V60.0791V60.0597V60.0403V60.0211V60.0019V59.9828V59.9638V59.9448V59.9259V59.9071V59.8883V59.8697V59.8511V59.8325V59.8141V59.7957V59.7774V59.7592V59.7411V59.723V59.705V59.6871V59.6693V59.6515V59.6338V59.6163V59.5987V59.5813V59.564V59.5467V59.5295V59.5124V59.4954V59.4785V59.4617V59.4449V59.4282V59.4116V59.3951V59.3787V59.3624V59.3462V59.33V59.314V59.298V59.2821V59.2663V59.2506V59.235V59.2195V59.2041V59.1887V59.1735V59.1583V59.1433V59.1283V59.1135V59.0987V59.084V59.0695V59.055V59.0406V59.0263V59.0121V58.998V58.9841V58.9702V58.9564V58.9427V58.9291V58.9156V58.9022V58.889V58.8758V58.8627V58.8498V58.8369V58.8241V58.8115V58.7989V58.7865V58.7741V58.7619V58.7498V58.7378V58.7259V58.7141V58.7024V58.6908V58.6793V58.668V58.6567V58.6456V58.6346V58.6237V58.6129V58.6022V58.5916V58.5812V58.5709V58.5606V58.5505V58.5405V58.5307V58.5209V58.5113V58.5018V58.4924V58.4831V58.4775C63.5543 58.4286 63.7981 58.3602 64.1073 58.2749C64.7778 58.0899 65.7558 57.8254 66.9839 57.508C69.4403 56.873 72.8967 56.0263 76.8956 55.1796C84.8999 53.4849 95.0524 51.7959 103.705 51.7959C112.359 51.7959 122.511 53.4849 130.515 55.1796C134.514 56.0263 137.971 56.873 140.427 57.508C141.655 57.8254 142.633 58.0899 143.304 58.2749Z" fill="#6A6A6A" stroke="black" stroke-width="0.848901"/>
<path d="M144.029 59.0229C144.029 64.9371 139.632 70.3846 132.316 74.3783C125.015 78.3632 114.901 80.8411 103.705 80.8411C92.5102 80.8411 82.3958 78.3632 75.0953 74.3783C67.7789 70.3846 63.3815 64.9371 63.3815 59.0229C63.3815 53.1088 67.7789 47.6613 75.0953 43.6676C82.3958 39.6827 92.5102 37.2048 103.705 37.2048C114.901 37.2048 125.015 39.6827 132.316 43.6676C139.632 47.6613 144.029 53.1088 144.029 59.0229Z" fill="#8F8F8F" stroke="black" stroke-width="0.848901"/>
<path d="M106.908 77.1729L95.6975 72.9023L95.5195 71.8347L125.414 48.7024L135.734 51.9053L135.556 52.973L106.908 77.1729Z" fill="#6A6A6A" stroke="black" stroke-width="0.679121"/>
<path d="M125.411 47.6347L135.554 51.9053L127.013 59.1202L106.906 76.1053L104.77 75.2918L95.6953 71.8347L125.411 47.6347Z" fill="#595858"/>
<path d="M125.411 47.6347L135.554 51.9053L127.013 59.1202M125.411 47.6347L95.6953 71.8347L104.77 75.2918M125.411 47.6347V57.9553M125.411 57.9553L104.77 75.2918M125.411 57.9553L127.013 59.1202M104.77 75.2918L106.906 76.1053L127.013 59.1202" stroke="black" stroke-width="0.679121"/>
<path d="M126.836 59.0229L125.412 57.9553L104.949 75.2155L106.907 76.1053L126.836 59.0229Z" fill="#D1F5F9" stroke="black" stroke-width="0.679121"/>
<path d="M152.814 77.7067V87.3155M147.476 84.1126V93.8993M140.536 88.917V98.7037M133.418 91.764L133.774 101.907M126.835 93.8993V104.22M118.116 95.8567V105.999M110.108 96.5684V107.067M101.389 96.5684V107.067M92.3141 95.8567V106.533M84.1288 94.6111V105.11M77.545 93.1876V103.152M70.7833 90.5185V100.661M66.1568 87.8493V98.5258M61.7083 84.8244L61.3524 94.967M57.6157 81.0876V91.764M53.8789 75.3935V84.8244" stroke="black" stroke-width="0.679121"/>
<ellipse cx="9.33883" cy="2.88019" rx="9.33883" ry="2.88019" transform="matrix(0.81334 -0.615604 0.644526 0.737629 107.141 128.359)" fill="#9ED7DD"/>
<path d="M124.132 118.968L122.396 116.932L121.6 118.528L122.919 119.635L124.132 118.968Z" fill="#9ED7DD"/>
<path d="M108.949 130.41L107.127 128.331L109.051 128.026L109.948 129.453L108.949 130.41Z" fill="#9ED7DD"/>
<path fill-rule="evenodd" clip-rule="evenodd" d="M111.825 130.53C111.592 130.6 111.359 130.662 111.126 130.714L109.01 128.563L109.489 128.157L111.825 130.53ZM113.077 130.076C112.868 130.164 112.657 130.247 112.445 130.324L110.178 128.02L110.657 127.614L113.079 130.074L113.077 130.076ZM114.376 129.461C114.182 129.562 113.986 129.661 113.787 129.756L111.48 127.411L111.96 127.005L114.376 129.461ZM115.464 128.855C115.28 128.964 115.092 129.071 114.902 129.177L112.594 126.832L113.074 126.426L115.464 128.855ZM116.502 128.218C116.325 128.33 116.143 128.444 115.957 128.558L113.654 126.217L114.134 125.811L116.502 128.218ZM117.747 127.406C117.7 127.437 117.653 127.468 117.604 127.5C117.478 127.583 117.348 127.669 117.214 127.757L114.929 125.435L115.408 125.029L117.747 127.406ZM119.148 126.331C118.988 126.46 118.824 126.591 118.654 126.723L116.296 124.326L116.775 123.92L119.148 126.331ZM120.497 125.185C120.346 125.321 120.189 125.459 120.026 125.6L117.717 123.253L118.196 122.847L120.497 125.185ZM121.525 124.209C121.382 124.352 121.233 124.498 121.077 124.648L118.829 122.363L119.309 121.956L121.525 124.209ZM122.478 123.176C122.348 123.329 122.209 123.485 122.062 123.646L119.888 121.437L120.367 121.031L122.478 123.176ZM123.16 122.31C123.043 122.472 122.915 122.64 122.777 122.814L120.57 120.571L121.049 120.165L123.16 122.31ZM123.732 121.427C123.632 121.602 123.52 121.784 123.392 121.976L121.212 119.756L121.691 119.35L123.732 121.427ZM124.191 120.465C124.12 120.655 124.03 120.86 123.918 121.081L121.745 118.87L122.225 118.464L124.191 120.465ZM110.121 130.873L108.083 128.8L108.562 128.394L110.892 130.762C110.635 130.812 110.378 130.849 110.121 130.873ZM124.418 119.632C124.386 119.834 124.33 120.071 124.236 120.341L122.119 118.187L122.599 117.781L124.418 119.632Z" fill="#A8A8A8"/>
<ellipse cx="9.33531" cy="2.52831" rx="9.33531" ry="2.52831" transform="matrix(0.81334 -0.615604 0.644526 0.737629 105.559 126.537)" fill="#A8A8A8"/>
<ellipse cx="7.1601" cy="1.47498" rx="7.1601" ry="1.47498" transform="matrix(0.81334 -0.615604 0.644526 0.737629 108.176 126.418)" fill="#86D8E2"/>
<path fill-rule="evenodd" clip-rule="evenodd" d="M121.736 118.064C121.711 117.98 121.671 117.906 121.616 117.842C120.828 116.941 117.215 118.462 113.546 121.239C109.877 124.016 107.541 126.998 108.328 127.899C108.384 127.963 108.454 128.015 108.537 128.055C108.207 126.954 110.465 124.197 113.875 121.616C117.285 119.035 120.646 117.539 121.736 118.064Z" fill="#9ED7DD"/>
<path fill-rule="evenodd" clip-rule="evenodd" d="M121.682 117.927C121.697 117.939 121.71 117.953 121.723 117.967C122.388 118.729 119.954 121.598 116.284 124.375C112.615 127.152 109.101 128.786 108.435 128.024C108.423 128.01 108.412 127.996 108.402 127.981C109.159 128.641 112.61 127.017 116.211 124.292C119.815 121.564 122.227 118.749 121.682 117.927Z" fill="#9ED7DD"/>
<ellipse cx="9.33883" cy="2.88019" rx="9.33883" ry="2.88019" transform="matrix(0.725683 0.71685 -0.637779 0.74347 88.2422 126.04)" fill="#9ED7DD"/>
<path d="M99.9686 141.511L101.735 139.502L100.042 138.942L99.1343 140.406L99.9686 141.511Z" fill="#9ED7DD"/>
<path d="M86.4717 128.123L88.2692 126.021L88.8458 127.882L87.5619 128.973L86.4717 128.123Z" fill="#9ED7DD"/>
<path fill-rule="evenodd" clip-rule="evenodd" d="M86.7615 130.984C86.6591 130.764 86.5648 130.542 86.4801 130.319L88.3057 127.917L88.7764 128.333L86.7615 130.984ZM87.3904 132.158C87.2734 131.964 87.161 131.767 87.0544 131.568L89.0103 128.995L89.481 129.411L87.3921 132.16L87.3904 132.158ZM88.1851 133.356C88.0572 133.179 87.9314 132.999 87.8089 132.816L89.7994 130.197L90.2701 130.613L88.1851 133.356ZM88.9402 134.346C88.8065 134.18 88.6731 134.009 88.5408 133.836L90.5318 131.216L91.0024 131.633L88.9402 134.346ZM89.7195 135.282C89.5829 135.123 89.4443 134.96 89.3047 134.792L91.2919 132.178L91.7626 132.594L89.7195 135.282ZM90.7014 136.399C90.664 136.356 90.6262 136.314 90.5878 136.271C90.4874 136.158 90.3838 136.041 90.2774 135.921L92.2488 133.327L92.7195 133.743L90.7014 136.399ZM91.9654 137.631C91.8151 137.491 91.6623 137.347 91.5073 137.198L93.5419 134.521L94.0126 134.938L91.9654 137.631ZM93.2929 138.802C93.1366 138.672 92.9773 138.537 92.815 138.395L94.8073 135.774L95.278 136.191L93.2929 138.802ZM94.4064 139.679C94.2441 139.559 94.078 139.433 93.908 139.3L95.8475 136.748L96.3182 137.164L94.4064 139.679ZM95.5652 140.475C95.3953 140.368 95.2202 140.253 95.04 140.13L96.9155 137.663L97.3862 138.079L95.5652 140.475ZM96.5196 141.026C96.3421 140.933 96.1576 140.831 95.9659 140.719L97.8699 138.214L98.3406 138.63L96.5196 141.026ZM97.475 141.466C97.2883 141.392 97.0912 141.307 96.8836 141.208L98.7684 138.732L99.2388 139.149L97.475 141.466ZM98.4934 141.782C98.2953 141.739 98.0791 141.68 97.844 141.601L99.7222 139.134L100.193 139.55L98.4934 141.782ZM86.179 129.347L87.938 127.033L88.4087 127.449L86.3985 130.094C86.3125 129.847 86.2386 129.598 86.179 129.347ZM99.3495 141.888C99.1451 141.885 98.9032 141.863 98.6218 141.809L100.451 139.405L100.922 139.822L99.3495 141.888Z" fill="#A8A8A8"/>
<ellipse cx="9.33531" cy="2.52831" rx="9.33531" ry="2.52831" transform="matrix(0.725683 0.71685 -0.637779 0.74347 89.8164 124.214)" fill="#A8A8A8"/>
<ellipse cx="7.1601" cy="1.47498" rx="7.1601" ry="1.47498" transform="matrix(0.725683 0.71685 -0.637779 0.74347 90.3086 126.787)" fill="#86D8E2"/>
<path fill-rule="evenodd" clip-rule="evenodd" d="M100.52 139.009C100.599 138.973 100.667 138.922 100.722 138.858C101.501 137.95 99.4788 134.592 96.205 131.358C92.9312 128.124 89.6456 126.239 88.8664 127.147C88.8113 127.211 88.7702 127.288 88.7426 127.376C89.784 126.891 92.8369 128.732 95.8796 131.738C98.922 134.743 100.883 137.855 100.52 139.009Z" fill="#9ED7DD"/>
<path fill-rule="evenodd" clip-rule="evenodd" d="M100.648 138.938C100.638 138.954 100.627 138.969 100.614 138.984C99.9557 139.752 96.7678 137.753 93.4941 134.519C90.2203 131.285 88.1004 128.041 88.7591 127.273C88.7709 127.259 88.7835 127.246 88.7969 127.234C88.2514 128.077 90.3529 131.261 93.5657 134.435C96.7809 137.611 99.9133 139.596 100.648 138.938Z" fill="#9ED7DD"/>
<ellipse cx="9.33531" cy="2.52831" rx="9.33531" ry="2.52831" transform="matrix(1.02002 0.00720796 0.0618467 0.977591 89.2266 157.748)" fill="#9ED7DD"/>
<ellipse cx="9.33883" cy="2.88019" rx="9.33883" ry="2.88019" transform="matrix(1.02002 0.00720796 0.0618467 0.977591 91.8594 156.597)" fill="#9ED7DD"/>
<path d="M111.056 159.498L110.919 156.827L109.316 157.607L109.686 159.288L111.056 159.498Z" fill="#9ED7DD"/>
<path d="M92.0448 159.325L91.8664 156.565L93.5777 157.496L93.4194 159.174L92.0448 159.325Z" fill="#9ED7DD"/>
<path fill-rule="evenodd" clip-rule="evenodd" d="M94.25 161.171C94.0232 161.084 93.8008 160.991 93.5841 160.89L93.216 157.896L93.8438 157.866L94.25 161.171ZM95.5196 161.573C95.3002 161.515 95.0825 161.453 94.8675 161.385L94.4731 158.177L95.1008 158.146L95.522 161.573L95.5196 161.573ZM96.925 161.877C96.7095 161.839 96.4936 161.797 96.2782 161.752L95.8769 158.487L96.5046 158.457L96.925 161.877ZM98.1565 162.059C97.9445 162.033 97.7301 162.004 97.5144 161.972L97.113 158.706L97.7407 158.676L98.1565 162.059ZM99.3677 162.186C99.1591 162.167 98.9457 162.147 98.7287 162.124L98.3281 158.865L98.9558 158.834L99.3677 162.186ZM100.85 162.3C100.794 162.296 100.737 162.292 100.68 162.288C100.529 162.277 100.373 162.266 100.213 162.254L99.8155 159.02L100.443 158.99L100.85 162.3ZM102.616 162.301C102.41 162.306 102.2 162.309 101.985 162.311L101.575 158.974L102.203 158.943L102.616 162.301ZM104.384 162.214C104.181 162.23 103.972 162.244 103.757 162.256L103.356 158.988L103.984 158.958L104.384 162.214ZM105.793 162.066C105.593 162.093 105.386 162.118 105.171 162.141L104.78 158.96L105.408 158.93L105.793 162.066ZM107.179 161.827C106.982 161.869 106.777 161.909 106.562 161.947L106.184 158.87L106.812 158.84L107.179 161.827ZM108.247 161.556C108.055 161.613 107.852 161.669 107.636 161.722L107.252 158.599L107.88 158.569L108.247 161.556ZM109.238 161.204C109.053 161.282 108.852 161.358 108.635 161.432L108.257 158.344L108.885 158.314L109.238 161.204ZM110.189 160.721C110.016 160.828 109.82 160.936 109.597 161.044L109.221 157.966L109.848 157.936L110.189 160.721ZM92.6906 160.404L92.336 157.519L92.9637 157.489L93.369 160.786C93.1347 160.669 92.908 160.542 92.6906 160.404ZM110.875 160.199C110.727 160.339 110.538 160.492 110.299 160.65L109.933 157.652L110.561 157.622L110.875 160.199Z" fill="#A8A8A8"/>
<ellipse cx="9.33531" cy="2.52831" rx="9.33531" ry="2.52831" transform="matrix(1.02002 0.00720796 0.0618467 0.977591 91.7148 154.189)" fill="#A8A8A8"/>
<ellipse cx="7.1601" cy="1.47498" rx="7.1601" ry="1.47498" transform="matrix(1.02002 0.00720796 0.0618467 0.977591 93.8633 155.688)" fill="#86D8E2"/>
<path fill-rule="evenodd" clip-rule="evenodd" d="M109.707 157.321C109.738 157.24 109.751 157.156 109.746 157.072C109.67 155.878 105.879 154.883 101.277 154.85C96.6756 154.818 93.0066 155.76 93.0821 156.954C93.0875 157.039 93.1114 157.122 93.1528 157.204C93.5612 156.131 97.0323 155.319 101.309 155.349C105.585 155.38 109.162 156.241 109.707 157.321Z" fill="#9ED7DD"/>
<path fill-rule="evenodd" clip-rule="evenodd" d="M109.748 157.182C109.752 157.2 109.754 157.219 109.755 157.237C109.819 158.247 106.141 159.039 101.539 159.007C96.9374 158.974 93.1552 158.129 93.0914 157.119C93.0902 157.101 93.0903 157.083 93.0916 157.064C93.2869 158.049 97.0146 158.864 101.532 158.896C106.049 158.928 109.677 158.165 109.748 157.182Z" fill="#9ED7DD"/>
<ellipse cx="9.33531" cy="2.52831" rx="9.33531" ry="2.52831" transform="matrix(1.02002 0.00720796 0.0618467 0.977591 119.477 166.645)" fill="#9ED7DD"/>
<ellipse cx="9.33883" cy="2.88019" rx="9.33883" ry="2.88019" transform="matrix(1.02002 0.00720796 0.0618467 0.977591 122.113 165.494)" fill="#9ED7DD"/>
<path d="M141.306 168.395L141.169 165.724L139.566 166.504L139.936 168.185L141.306 168.395Z" fill="#9ED7DD"/>
<path d="M122.295 168.222L122.116 165.462L123.828 166.393L123.669 168.071L122.295 168.222Z" fill="#9ED7DD"/>
<path fill-rule="evenodd" clip-rule="evenodd" d="M124.5 170.068C124.273 169.981 124.051 169.888 123.834 169.787L123.466 166.793L124.094 166.763L124.5 170.068ZM125.77 170.47C125.55 170.412 125.332 170.35 125.117 170.282L124.723 167.074L125.351 167.043L125.772 170.47L125.77 170.47ZM127.175 170.774C126.96 170.736 126.744 170.694 126.528 170.649L126.127 167.384L126.755 167.354L127.175 170.774ZM128.406 170.956C128.194 170.93 127.98 170.901 127.764 170.869L127.363 167.603L127.991 167.573L128.406 170.956ZM129.618 171.083C129.409 171.064 129.196 171.044 128.979 171.021L128.578 167.762L129.206 167.731L129.618 171.083ZM131.1 171.197C131.044 171.193 130.987 171.189 130.93 171.185C130.779 171.174 130.623 171.163 130.463 171.151L130.066 167.917L130.693 167.887L131.1 171.197ZM132.866 171.198C132.66 171.203 132.45 171.206 132.235 171.208L131.825 167.871L132.453 167.84L132.866 171.198ZM134.634 171.111C134.431 171.127 134.222 171.141 134.007 171.153L133.606 167.885L134.234 167.855L134.634 171.111ZM136.043 170.963C135.843 170.99 135.636 171.015 135.421 171.038L135.03 167.857L135.658 167.827L136.043 170.963ZM137.429 170.724C137.232 170.766 137.027 170.806 136.812 170.844L136.434 167.767L137.062 167.737L137.429 170.724ZM138.497 170.453C138.305 170.51 138.102 170.566 137.886 170.619L137.502 167.496L138.13 167.466L138.497 170.453ZM139.488 170.101C139.303 170.179 139.102 170.255 138.885 170.329L138.507 167.241L139.135 167.211L139.488 170.101ZM140.439 169.618C140.266 169.725 140.07 169.833 139.847 169.941L139.471 166.863L140.098 166.833L140.439 169.618ZM122.941 169.301L122.586 166.416L123.214 166.386L123.619 169.683C123.385 169.566 123.158 169.439 122.941 169.301ZM141.125 169.096C140.977 169.236 140.788 169.389 140.549 169.547L140.183 166.549L140.811 166.519L141.125 169.096Z" fill="#A8A8A8"/>
<ellipse cx="9.33531" cy="2.52831" rx="9.33531" ry="2.52831" transform="matrix(1.02002 0.00720796 0.0618467 0.977591 121.965 163.086)" fill="#A8A8A8"/>
<ellipse cx="7.1601" cy="1.47498" rx="7.1601" ry="1.47498" transform="matrix(1.02002 0.00720796 0.0618467 0.977591 124.113 164.585)" fill="#86D8E2"/>
<path fill-rule="evenodd" clip-rule="evenodd" d="M139.957 166.218C139.988 166.137 140.001 166.053 139.996 165.969C139.92 164.775 136.129 163.78 131.527 163.747C126.926 163.715 123.257 164.657 123.332 165.851C123.337 165.936 123.361 166.019 123.403 166.101C123.811 165.028 127.282 164.216 131.559 164.247C135.835 164.277 139.412 165.138 139.957 166.218Z" fill="#9ED7DD"/>
<path fill-rule="evenodd" clip-rule="evenodd" d="M139.998 166.079C140.002 166.097 140.004 166.116 140.005 166.134C140.069 167.144 136.391 167.936 131.789 167.904C127.187 167.871 123.405 167.026 123.341 166.016C123.34 165.998 123.34 165.98 123.342 165.961C123.537 166.946 127.265 167.761 131.782 167.793C136.299 167.825 139.927 167.062 139.998 166.079Z" fill="#9ED7DD"/>
<ellipse cx="9.33531" cy="2.52831" rx="9.33531" ry="2.52831" transform="matrix(1.02002 0.00720796 0.0618467 0.977591 88.1602 166.289)" fill="#9ED7DD"/>
<ellipse cx="9.33883" cy="2.88019" rx="9.33883" ry="2.88019" transform="matrix(1.02002 0.00720796 0.0618467 0.977591 90.7969 165.138)" fill="#9ED7DD"/>
<path d="M109.989 168.04L109.852 165.368L108.249 166.148L108.62 167.83L109.989 168.04Z" fill="#9ED7DD"/>
<path d="M90.9784 167.866L90.8 165.107L92.5113 166.037L92.353 167.715L90.9784 167.866Z" fill="#9ED7DD"/>
<path fill-rule="evenodd" clip-rule="evenodd" d="M93.1836 169.712C92.9568 169.626 92.7344 169.532 92.5177 169.431L92.1496 166.437L92.7774 166.407L93.1836 169.712ZM94.4532 170.114C94.2338 170.057 94.0161 169.994 93.8011 169.926L93.4067 166.718L94.0344 166.688L94.4556 170.114L94.4532 170.114ZM95.8586 170.418C95.6431 170.38 95.4272 170.339 95.2118 170.293L94.8105 167.028L95.4382 166.998L95.8586 170.418ZM97.0901 170.6C96.8781 170.574 96.6637 170.545 96.448 170.513L96.0466 167.248L96.6743 167.217L97.0901 170.6ZM98.3013 170.727C98.0927 170.708 97.8793 170.688 97.6623 170.665L97.2617 167.406L97.8894 167.376L98.3013 170.727ZM99.7837 170.842C99.7276 170.837 99.6707 170.833 99.6131 170.829C99.4624 170.818 99.3067 170.807 99.1466 170.795L98.7491 167.561L99.3768 167.531L99.7837 170.842ZM101.549 170.843C101.344 170.847 101.134 170.851 100.919 170.852L100.509 167.515L101.136 167.485L101.549 170.843ZM103.317 170.755C103.115 170.771 102.906 170.785 102.691 170.797L102.289 167.529L102.917 167.499L103.317 170.755ZM104.727 170.607C104.527 170.634 104.32 170.659 104.105 170.682L103.714 167.501L104.342 167.471L104.727 170.607ZM106.112 170.368C105.916 170.41 105.71 170.45 105.496 170.488L105.117 167.411L105.745 167.381L106.112 170.368ZM107.18 170.097C106.989 170.155 106.785 170.21 106.569 170.263L106.186 167.14L106.813 167.11L107.18 170.097ZM108.172 169.746C107.987 169.823 107.786 169.899 107.568 169.973L107.191 166.885L107.819 166.855L108.172 169.746ZM109.122 169.262C108.95 169.369 108.754 169.477 108.53 169.585L108.154 166.507L108.782 166.477L109.122 169.262ZM91.6242 168.946L91.2696 166.06L91.8973 166.03L92.3026 169.327C92.0683 169.21 91.8416 169.083 91.6242 168.946ZM109.809 168.74C109.66 168.88 109.472 169.034 109.233 169.191L108.866 166.193L109.494 166.163L109.809 168.74Z" fill="#A8A8A8"/>
<ellipse cx="9.33531" cy="2.52831" rx="9.33531" ry="2.52831" transform="matrix(1.02002 0.00720796 0.0618467 0.977591 90.6484 162.73)" fill="#A8A8A8"/>
<ellipse cx="7.1601" cy="1.47498" rx="7.1601" ry="1.47498" transform="matrix(1.02002 0.00720796 0.0618467 0.977591 92.7969 164.23)" fill="#86D8E2"/>
<path fill-rule="evenodd" clip-rule="evenodd" d="M108.641 165.862C108.672 165.781 108.685 165.697 108.68 165.613C108.604 164.419 104.812 163.424 100.211 163.392C95.6092 163.359 91.9402 164.301 92.0157 165.495C92.0211 165.58 92.045 165.663 92.0866 165.746C92.4944 164.672 95.9658 163.86 100.243 163.891C104.519 163.921 108.095 164.782 108.641 165.862Z" fill="#9ED7DD"/>
<path fill-rule="evenodd" clip-rule="evenodd" d="M108.681 165.723C108.685 165.741 108.688 165.76 108.689 165.778C108.753 166.788 105.074 167.58 100.473 167.548C95.8709 167.515 92.0888 166.67 92.025 165.661C92.0238 165.642 92.0239 165.624 92.0251 165.606C92.2218 166.591 95.9489 167.405 100.465 167.437C104.984 167.469 108.612 166.706 108.681 165.723Z" fill="#9ED7DD"/>
<ellipse cx="9.33531" cy="2.52831" rx="9.33531" ry="2.52831" transform="matrix(1.01766 -0.0697291 0.135388 0.970144 76.9961 159.033)" fill="#414141" fill-opacity="0.9"/>
<ellipse cx="9.33883" cy="2.88019" rx="9.33883" ry="2.88019" transform="matrix(0.964477 -0.332076 0.383113 0.901518 78.2578 158.271)" fill="#9ED7DD"/>
<path d="M97.326 154.631L96.3092 152.156L95.0566 153.425L95.9648 154.887L97.326 154.631Z" fill="#9ED7DD"/>
<path d="M79.3383 160.783L78.2533 158.239L80.1765 158.548L80.5846 160.183L79.3383 160.783Z" fill="#9ED7DD"/>
<path fill-rule="evenodd" clip-rule="evenodd" d="M82.0301 161.791C81.7875 161.785 81.5468 161.771 81.3089 161.747L79.9668 159.045L80.5489 158.808L82.0301 161.791ZM83.3611 161.748C83.1351 161.767 82.909 161.78 82.6836 161.787L81.2458 158.892L81.8279 158.655L83.3634 161.747L83.3611 161.748ZM84.7877 161.568C84.5719 161.604 84.3545 161.636 84.1362 161.665L82.6729 158.719L83.255 158.482L84.7877 161.568ZM86.0098 161.331C85.8012 161.376 85.5894 161.42 85.3753 161.462L83.9117 158.515L84.4938 158.278L86.0098 161.331ZM87.1943 161.048C86.9914 161.1 86.7834 161.151 86.5712 161.202L85.1104 158.261L85.6925 158.024L87.1943 161.048ZM88.6307 160.663C88.5764 160.678 88.5214 160.693 88.4656 160.708C88.3198 160.748 88.1692 160.789 88.0142 160.831L86.5651 157.913L87.1471 157.676L88.6307 160.663ZM90.2962 160.078C90.1042 160.151 89.9072 160.223 89.705 160.296L88.2093 157.285L88.7913 157.048L90.2962 160.078ZM91.9349 159.408C91.7489 159.49 91.5567 159.573 91.3582 159.656L89.8936 156.707L90.4757 156.47L91.9349 159.408ZM93.2152 158.8C93.0354 158.892 92.8483 158.985 92.6536 159.078L91.2278 156.207L91.8098 155.97L93.2152 158.8ZM94.4425 158.115C94.2712 158.219 94.0907 158.325 93.9005 158.432L92.5218 155.656L93.1038 155.419L94.4425 158.115ZM95.36 157.504C95.1981 157.622 95.0247 157.742 94.8389 157.864L93.4392 155.045L94.0213 154.809L95.36 157.504ZM96.1781 156.843C96.0293 156.978 95.8653 157.116 95.6845 157.259L94.3026 154.471L94.8849 154.234L96.1781 156.843ZM96.9138 156.071C96.787 156.229 96.638 156.397 96.4628 156.572L95.0857 153.794L95.668 153.558L96.9138 156.071ZM80.3047 161.586L79.0116 158.982L79.5937 158.745L81.0714 161.721C80.8115 161.688 80.5555 161.644 80.3047 161.586ZM97.3881 155.35C97.2949 155.532 97.1681 155.74 96.9945 155.968L95.653 153.261L96.2352 153.025L97.3881 155.35Z" fill="#A8A8A8"/>
<ellipse cx="9.33531" cy="2.52831" rx="9.33531" ry="2.52831" transform="matrix(0.964477 -0.332076 0.383113 0.901518 77.3203 156.047)" fill="#A8A8A8"/>
<ellipse cx="7.1601" cy="1.47498" rx="7.1601" ry="1.47498" transform="matrix(0.964477 -0.332076 0.383113 0.901518 79.8477 156.748)" fill="#86D8E2"/>
<path fill-rule="evenodd" clip-rule="evenodd" d="M95.3296 153.026C95.3318 152.938 95.3168 152.855 95.2837 152.778C94.8156 151.676 90.9089 151.998 86.5579 153.496C82.2069 154.994 79.0591 157.101 79.5272 158.203C79.5603 158.28 79.6104 158.351 79.6767 158.415C79.7058 157.266 82.71 155.348 86.7532 153.956C90.7972 152.564 94.4573 152.188 95.3296 153.026Z" fill="#9ED7DD"/>
<path fill-rule="evenodd" clip-rule="evenodd" d="M95.3232 152.88C95.3328 152.896 95.3413 152.913 95.3486 152.93C95.7443 153.861 92.5378 155.83 88.1868 157.328C83.8358 158.826 79.9878 159.286 79.5921 158.355C79.5849 158.338 79.5789 158.321 79.5741 158.303C80.0863 159.167 83.8725 158.697 88.1435 157.227C92.4155 155.756 95.5841 153.831 95.3232 152.88Z" fill="#9ED7DD"/>
<ellipse cx="9.33531" cy="2.52831" rx="9.33531" ry="2.52831" transform="matrix(1.00354 0.182755 -0.107426 0.973637 103.715 154.577)" fill="#414141" fill-opacity="0.8"/>
<ellipse cx="9.33883" cy="2.88019" rx="9.33883" ry="2.88019" transform="matrix(0.929377 0.420414 -0.340085 0.918614 105.977 150.194)" fill="#9ED7DD"/>
<path d="M122.344 160.633L123.303 158.135L121.521 158.198L121.178 159.885L122.344 160.633Z" fill="#9ED7DD"/>
<path d="M105.037 152.761L105.994 150.167L107.18 151.712L106.355 153.181L105.037 152.761Z" fill="#9ED7DD"/>
<path fill-rule="evenodd" clip-rule="evenodd" d="M106.305 155.344C106.133 155.173 105.967 154.997 105.81 154.817L106.689 151.931L107.275 152.158L106.305 155.344ZM107.302 156.226C107.125 156.085 106.952 155.939 106.783 155.79L107.724 152.697L108.31 152.925L107.305 156.227L107.302 156.226ZM108.464 157.074C108.282 156.952 108.102 156.827 107.923 156.698L108.881 153.55L109.467 153.778L108.464 157.074ZM109.515 157.74C109.332 157.63 109.148 157.517 108.964 157.4L109.922 154.253L110.508 154.48L109.515 157.74ZM110.571 158.347C110.388 158.246 110.201 158.141 110.012 158.032L110.968 154.89L111.554 155.117L110.571 158.347ZM111.879 159.054C111.83 159.027 111.779 159 111.728 158.973C111.595 158.902 111.457 158.829 111.316 158.753L112.265 155.636L112.851 155.863L111.879 159.054ZM113.493 159.771C113.303 159.692 113.11 159.61 112.913 159.524L113.892 156.307L114.478 156.534L113.493 159.771ZM115.144 160.409C114.952 160.341 114.756 160.269 114.555 160.193L115.513 157.043L116.099 157.27L115.144 160.409ZM116.493 160.845C116.299 160.788 116.099 160.727 115.894 160.661L116.827 157.595L117.413 157.822L116.493 160.845ZM117.856 161.189C117.659 161.147 117.455 161.101 117.244 161.048L118.146 158.082L118.732 158.31L117.856 161.189ZM118.942 161.374C118.743 161.349 118.535 161.317 118.316 161.278L119.232 158.268L119.818 158.495L118.942 161.374ZM119.991 161.455C119.79 161.451 119.576 161.439 119.347 161.418L120.255 158.442L120.841 158.67L119.991 161.455ZM121.056 161.398C120.855 161.426 120.632 161.446 120.384 161.454L121.289 158.488L121.875 158.715L121.056 161.398ZM105.191 154.011L106.037 151.229L106.623 151.457L105.656 154.635C105.489 154.433 105.334 154.225 105.191 154.011ZM121.895 161.2C121.703 161.268 121.468 161.332 121.185 161.379L122.067 158.49L122.653 158.717L121.895 161.2Z" fill="#A8A8A8"/>
<ellipse cx="9.33531" cy="2.52831" rx="9.33531" ry="2.52831" transform="matrix(0.929377 0.420414 -0.340085 0.918614 106.82 147.934)" fill="#A8A8A8"/>
<ellipse cx="7.1601" cy="1.47498" rx="7.1601" ry="1.47498" transform="matrix(0.929377 0.420414 -0.340085 0.918614 108.176 150.176)" fill="#86D8E2"/>
<path fill-rule="evenodd" clip-rule="evenodd" d="M121.993 158.095C122.055 158.033 122.101 157.962 122.13 157.883C122.545 156.761 119.483 154.313 115.291 152.417C111.098 150.52 107.362 149.892 106.947 151.015C106.917 151.094 106.905 151.18 106.91 151.272C107.719 150.456 111.221 151.123 115.117 152.886C119.014 154.648 121.933 156.886 121.993 158.095Z" fill="#9ED7DD"/>
<path fill-rule="evenodd" clip-rule="evenodd" d="M122.089 157.985C122.085 158.003 122.079 158.021 122.073 158.038C121.722 158.987 118.038 158.219 113.845 156.322C109.653 154.425 106.539 152.119 106.89 151.17C106.896 151.153 106.904 151.136 106.913 151.12C106.691 152.099 109.768 154.356 113.884 156.218C118 158.08 121.625 158.855 122.089 157.985Z" fill="#9ED7DD"/>
<path d="M141.605 109.736C141.605 109.736 148.308 106.77 150.147 105.465L145.164 153.509L141.605 156.179V109.736Z" fill="#FCFFFC" fill-opacity="0.74"/>
<path d="M65.4453 112.761C65.4453 112.761 63.0135 110.685 61.1747 109.38V131.979L63.31 134.292L65.4453 112.761Z" fill="#F0FDF0"/>
<path d="M193.279 181.949C191.754 184.004 189.864 185.761 187.702 187.132C187.243 187.423 186.771 187.698 186.291 187.952H174.994C175.129 187.682 175.26 187.407 175.388 187.132C178.89 179.74 179.989 171.437 178.528 163.389C177.068 155.341 173.122 147.953 167.246 142.264C174.074 144.373 180.386 148.485 184.514 154.316C186.52 157.155 187.946 160.363 188.712 163.754C189.394 156.971 188.31 150.128 185.564 143.889C191.108 148.398 195.425 154.574 197.071 161.526C198.716 168.481 197.522 176.2 193.279 181.949Z" fill="#D9D9D9"/>
<path d="M111.392 233.997C109.867 236.052 107.977 237.809 105.816 239.179C105.356 239.471 104.884 239.746 104.404 240H93.107C93.2422 239.729 93.3737 239.454 93.5009 239.179C97.0036 231.788 98.102 223.485 96.6417 215.437C95.1813 207.389 91.2357 200.001 85.3594 194.311C92.1877 196.421 98.4989 200.532 102.627 206.363C104.633 209.203 106.059 212.41 106.825 215.801C107.507 209.019 106.423 202.176 103.678 195.936C109.221 200.446 113.539 206.622 115.184 213.573C116.829 220.529 115.635 228.247 111.392 233.997Z" fill="#D9D9D9"/>
<path d="M14.7258 179.882C15.718 181.22 16.948 182.363 18.3542 183.255C18.6533 183.444 18.9603 183.623 19.2727 183.789H26.6231C26.5351 183.612 26.4495 183.433 26.3667 183.255C24.0877 178.445 23.3731 173.043 24.3232 167.806C25.2734 162.57 27.8406 157.763 31.6641 154.061C27.2212 155.433 23.1148 158.109 20.4288 161.903C19.1237 163.75 18.1955 165.837 17.6974 168.044C17.2535 163.631 17.959 159.178 19.7453 155.118C16.1382 158.053 13.3293 162.071 12.2587 166.594C11.1881 171.12 11.965 176.142 14.7258 179.882Z" fill="#D9D9D9"/>
<path d="M174.549 185.463C173.877 186.368 173.045 187.142 172.093 187.746C171.89 187.874 171.682 187.995 171.471 188.107H166.495C166.554 187.988 166.612 187.867 166.668 187.746C168.211 184.49 168.695 180.832 168.052 177.287C167.408 173.742 165.67 170.488 163.082 167.982C166.09 168.911 168.87 170.722 170.688 173.291C171.572 174.542 172.2 175.954 172.537 177.448C172.838 174.461 172.36 171.446 171.151 168.698C173.593 170.684 175.494 173.405 176.219 176.467C176.944 179.53 176.418 182.93 174.549 185.463Z" fill="#D9D9D9"/>
<path d="M146.096 205.546C145.424 206.452 144.592 207.225 143.639 207.829C143.437 207.958 143.229 208.079 143.018 208.191H138.042C138.101 208.071 138.159 207.95 138.215 207.829C139.758 204.573 140.242 200.916 139.599 197.371C138.955 193.826 137.217 190.572 134.629 188.066C137.637 188.995 140.417 190.806 142.235 193.374C143.119 194.625 143.747 196.038 144.084 197.532C144.385 194.544 143.907 191.53 142.698 188.781C145.14 190.768 147.041 193.488 147.766 196.55C148.491 199.614 147.965 203.014 146.096 205.546Z" fill="#D9D9D9"/>
<path d="M61.4318 201.382C60.7601 202.288 59.9274 203.062 58.9754 203.665C58.773 203.794 58.5651 203.915 58.3536 204.027H53.3775C53.4371 203.908 53.495 203.786 53.5511 203.665C55.0939 200.41 55.5778 196.752 54.9345 193.207C54.2912 189.662 52.5533 186.408 49.9648 183.902C52.9726 184.831 55.7526 186.642 57.571 189.211C58.4545 190.461 59.0829 191.874 59.4201 193.368C59.7206 190.38 59.243 187.366 58.0337 184.618C60.4757 186.604 62.3773 189.324 63.102 192.386C63.8268 195.45 63.3009 198.85 61.4318 201.382Z" fill="#D9D9D9"/>
<path d="M182.044 34.6788C181.885 33.5876 183.028 32.5181 184.597 32.2899C186.165 32.0617 187.566 32.7612 187.724 33.8523C187.883 34.9435 186.74 36.013 185.172 36.2412C183.603 36.4694 182.203 35.7699 182.044 34.6788Z" fill="#D9D9D9"/>
<path d="M163.372 32.8565C163.214 31.7654 164.356 30.6959 165.925 30.4677C167.493 30.2395 168.894 30.939 169.052 32.0301C169.211 33.1212 168.068 34.1908 166.5 34.419C164.931 34.6472 163.531 33.9477 163.372 32.8565Z" fill="#414141"/>
<path d="M187.158 19.5602C186.999 18.4691 188.142 17.3996 189.71 17.1714C191.279 16.9432 192.679 17.6427 192.838 18.7338C192.996 19.8249 191.853 20.8945 190.285 21.1227C188.717 21.3509 187.316 20.6514 187.158 19.5602Z" fill="#15BDCF"/>
<path d="M195.275 13.3675C195.268 12.3658 195.827 11.5495 196.523 11.5442C197.22 11.5389 197.791 12.3467 197.799 13.3484C197.806 14.3501 197.248 15.1664 196.551 15.1717C195.854 15.1769 195.283 14.3692 195.275 13.3675Z" fill="#D9D9D9"/>
<path d="M198.025 1.83279C198.018 0.831097 198.577 0.0147996 199.273 0.0095303C199.97 0.00426102 200.541 0.812015 200.549 1.81371C200.556 2.8154 199.998 3.63171 199.301 3.63698C198.604 3.64225 198.033 2.83449 198.025 1.83279Z" fill="#414141"/>
<path d="M176.627 22.133C176.619 21.1313 177.178 20.315 177.875 20.3098C178.572 20.3045 179.143 21.1122 179.15 22.1139C179.158 23.1156 178.599 23.9319 177.902 23.9372C177.205 23.9425 176.634 23.1347 176.627 22.133Z" fill="#D9D9D9"/>
<path d="M185.65 26.6388C185.643 25.6371 186.202 24.8208 186.898 24.8155C187.595 24.8102 188.166 25.618 188.174 26.6197C188.181 27.6214 187.623 28.4377 186.926 28.443C186.229 28.4483 185.658 27.6405 185.65 26.6388Z" fill="#15BDCF"/>
<path d="M173.088 34.9666C173.08 33.9649 173.639 33.1486 174.336 33.1433C175.033 33.1381 175.604 33.9458 175.611 34.9475C175.619 35.9492 175.06 36.7655 174.363 36.7708C173.666 36.7761 173.095 35.9683 173.088 34.9666Z" fill="#414141"/>
<path d="M18.9622 74.9683C18.8035 76.0594 19.9463 77.129 21.5148 77.3572C23.0833 77.5854 24.4835 76.8859 24.6422 75.7947C24.801 74.7036 23.6582 73.6341 22.0897 73.4059C20.5212 73.1777 19.121 73.8772 18.9622 74.9683Z" fill="#D9D9D9"/>
<path d="M0.290349 76.7905C0.131594 77.8817 1.27443 78.9512 2.84292 79.1794C4.41141 79.4076 5.81161 78.7081 5.97036 77.617C6.12912 76.5258 4.98631 75.4563 3.41782 75.2281C1.84933 74.9999 0.449103 75.6994 0.290349 76.7905Z" fill="#414141"/>
<path d="M24.0755 90.0869C23.9168 91.178 25.0596 92.2475 26.6281 92.4757C28.1966 92.704 29.5968 92.0044 29.7555 90.9133C29.9143 89.8222 28.7715 88.7527 27.203 88.5244C25.6345 88.2962 24.2343 88.9958 24.0755 90.0869Z" fill="#15BDCF"/>
<path d="M32.1933 96.2796C32.1857 97.2813 32.7445 98.0976 33.4413 98.1029C34.1381 98.1082 34.7092 97.3004 34.7168 96.2987C34.7243 95.297 34.1656 94.4807 33.4687 94.4754C32.7719 94.4702 32.2009 95.2779 32.1933 96.2796Z" fill="#D9D9D9"/>
<path d="M34.9433 107.814C34.9357 108.816 35.4945 109.632 36.1913 109.638C36.8881 109.643 37.4592 108.835 37.4668 107.833C37.4743 106.832 36.9156 106.015 36.2187 106.01C35.5219 106.005 34.9509 106.813 34.9433 107.814Z" fill="#414141"/>
<path d="M13.5449 87.5141C13.5373 88.5158 14.096 89.3321 14.7929 89.3373C15.4897 89.3426 16.0607 88.5348 16.0683 87.5332C16.0759 86.5315 15.5171 85.7151 14.8203 85.7099C14.1235 85.7046 13.5524 86.5124 13.5449 87.5141Z" fill="#D9D9D9"/>
<path d="M22.5683 83.0083C22.5607 84.01 23.1195 84.8263 23.8163 84.8316C24.5132 84.8368 25.0842 84.0291 25.0918 83.0274C25.0993 82.0257 24.5406 81.2094 23.8438 81.2041C23.1469 81.1988 22.5759 82.0066 22.5683 83.0083Z" fill="#15BDCF"/>
<path d="M10.0058 74.6805C9.99823 75.6822 10.557 76.4985 11.2538 76.5038C11.9506 76.509 12.5217 75.7013 12.5293 74.6996C12.5368 73.6979 11.9781 72.8816 11.2812 72.8763C10.5844 72.871 10.0134 73.6788 10.0058 74.6805Z" fill="#414141"/>
</svg>
