<svg width="205" height="179" viewBox="0 0 205 179" fill="none" xmlns="http://www.w3.org/2000/svg">
<path opacity="0.2" d="M183.433 95.3457L183.966 94.9149L181.135 77.5237L116.828 63.7726L111.57 92.8927L133.815 97.3416L160.767 101.467C168.847 102.704 177.074 100.482 183.433 95.3457Z" fill="#414141"/>
<path d="M73.1468 92.0838C68.9675 91.1401 60.1236 90.3042 58.1822 94.5105C55.7556 99.7683 55.7556 115.946 73.1468 139.404C90.538 162.862 -16.2579 178.499 10.8621 139.404C42.0046 94.5105 118.445 205.329 190.032 166.906" stroke="#6A6A6A" stroke-width="7.26817"/>
<path d="M198.7 51.599C198.494 61.8158 189.587 69.6664 179.425 68.588L135.27 63.9018C126.267 62.9463 119.493 55.2601 119.676 46.2085L120.087 25.8692C120.293 15.6524 129.2 7.80175 139.362 8.88023L183.517 13.5664C192.52 14.5219 199.294 22.2081 199.111 31.2597L198.7 51.599Z" fill="#6A6A6A" stroke="black" stroke-width="1.45363"/>
<rect x="120.404" y="6.86831" width="79.4128" height="79.4128" rx="17.4385" transform="rotate(6.05823 120.404 6.86831)" fill="white" stroke="black" stroke-width="1.45363"/>
<path d="M139.14 71.6377L142.559 39.4186L135.877 38.7094L136.231 35.3682L146.733 36.4827L142.958 72.043L139.14 71.6377ZM139.095 132.549C136.804 132.306 134.8 131.627 133.085 130.511C131.404 129.368 130.125 127.929 129.247 126.194C128.404 124.431 128.093 122.516 128.312 120.448C128.552 118.188 129.403 116.235 130.865 114.588C132.358 112.945 134.24 111.889 136.51 111.422L136.404 112.425C134.795 111.514 133.605 110.293 132.834 108.764C132.067 107.202 131.771 105.594 131.947 103.939C132.132 102.189 132.743 100.677 133.78 99.403C134.816 98.1293 136.124 97.174 137.704 96.5372C139.319 95.872 141.081 95.6406 142.991 95.8433C144.932 96.0493 146.608 96.6294 148.019 97.5837C149.434 98.5061 150.496 99.713 151.207 101.204C151.953 102.667 152.231 104.29 152.042 106.072C151.853 107.854 151.206 109.394 150.103 110.693C149.003 111.96 147.635 112.877 145.998 113.443L146.057 112.436C148.178 113.369 149.781 114.794 150.864 116.711C151.98 118.631 152.418 120.721 152.178 122.98C151.958 125.049 151.236 126.855 150.01 128.398C148.82 129.913 147.267 131.051 145.352 131.813C143.472 132.547 141.386 132.792 139.095 132.549ZM139.45 129.208C141.073 129.38 142.521 129.228 143.794 128.752C145.071 128.244 146.102 127.468 146.889 126.425C147.711 125.354 148.201 124.071 148.359 122.575C148.518 121.08 148.307 119.738 147.725 118.55C147.178 117.333 146.332 116.359 145.187 115.626C144.046 114.861 142.663 114.392 141.04 114.22C139.417 114.048 137.952 114.214 136.643 114.719C135.37 115.195 134.338 115.971 133.548 117.045C132.762 118.088 132.289 119.357 132.131 120.853C131.972 122.348 132.166 123.704 132.713 124.921C133.263 126.106 134.108 127.08 135.25 127.845C136.427 128.581 137.827 129.036 139.45 129.208ZM141.395 110.879C142.572 111.004 143.648 110.877 144.621 110.497C145.598 110.086 146.403 109.48 147.035 108.678C147.702 107.848 148.098 106.844 148.223 105.666C148.348 104.489 148.17 103.44 147.688 102.52C147.239 101.604 146.578 100.858 145.705 100.283C144.837 99.6755 143.814 99.3095 142.636 99.1845C141.459 99.0596 140.366 99.201 139.357 99.6088C138.384 99.9882 137.565 100.577 136.901 101.375C136.269 102.177 135.89 103.167 135.765 104.344C135.64 105.522 135.801 106.584 136.247 107.533C136.729 108.453 137.404 109.216 138.273 109.823C139.177 110.402 140.218 110.754 141.395 110.879Z" fill="black"/>
<path d="M129.528 78.1676L130.235 71.505L128.187 71.2876L128.266 70.5418L133.139 71.0589L133.059 71.8047L131.031 71.5894L130.324 78.252L129.528 78.1676ZM132.632 78.497L133.198 73.167L133.944 73.2461L133.851 74.1212L133.765 73.9814C133.918 73.7428 134.128 73.564 134.395 73.4449C134.669 73.3265 134.989 73.2866 135.353 73.3253L135.691 73.3612L135.612 74.107L135.145 74.0574C134.76 74.0166 134.439 74.1032 134.182 74.3172C133.925 74.5313 133.773 74.8571 133.726 75.2946L133.378 78.5762L132.632 78.497ZM137.521 79.1365C137.183 79.1007 136.888 79.0057 136.636 78.8516C136.385 78.6908 136.195 78.4897 136.067 78.2481C135.938 78.0065 135.889 77.7399 135.92 77.4482C135.95 77.1697 136.036 76.9242 136.179 76.7114C136.323 76.4921 136.53 76.3162 136.799 76.1838C137.067 76.0514 137.401 75.9729 137.799 75.9481L139.924 75.8217L139.852 76.4979L137.909 76.6135C137.518 76.6389 137.226 76.732 137.035 76.8927C136.85 77.0541 136.745 77.2575 136.719 77.5028C136.694 77.7414 136.765 77.9535 136.933 78.1389C137.108 78.3251 137.344 78.434 137.642 78.4656C138.007 78.5043 138.333 78.4619 138.621 78.3382C138.91 78.208 139.145 78.0183 139.325 77.7693C139.506 77.5203 139.614 77.2334 139.648 76.9086L139.792 75.5562C139.825 75.238 139.737 74.9671 139.526 74.7436C139.315 74.5201 139.024 74.3886 138.653 74.3492C138.328 74.3148 138.034 74.3674 137.771 74.5071C137.509 74.6401 137.304 74.8296 137.158 75.0755L136.52 74.6358C136.644 74.421 136.821 74.232 137.053 74.0689C137.292 73.9065 137.556 73.787 137.845 73.7105C138.136 73.6273 138.43 73.6016 138.729 73.6333C139.12 73.6748 139.456 73.7876 139.738 73.9717C140.027 74.1566 140.24 74.3937 140.377 74.6831C140.521 74.9666 140.575 75.284 140.537 75.6353L140.149 79.2948L139.403 79.2156L139.516 78.1516L139.614 78.2726C139.5 78.4616 139.335 78.6285 139.118 78.7731C138.909 78.9118 138.667 79.0168 138.391 79.0881C138.123 79.1535 137.833 79.1696 137.521 79.1365ZM141.683 79.4576L142.249 74.1275L142.994 74.2067L142.885 75.2409L142.72 75.1832C142.889 74.8525 143.133 74.6036 143.453 74.4363C143.779 74.2698 144.141 74.2077 144.539 74.2499C144.916 74.29 145.245 74.4121 145.525 74.6161C145.812 74.8208 146.025 75.0848 146.165 75.4081C146.313 75.7254 146.366 76.073 146.326 76.4509L145.959 79.9114L145.213 79.8323L145.55 76.6601C145.584 76.3352 145.554 76.0538 145.458 75.8157C145.37 75.5784 145.226 75.3887 145.026 75.2469C144.834 75.0991 144.602 75.0108 144.33 74.982C144.058 74.9531 143.81 74.9904 143.584 75.0939C143.359 75.1907 143.175 75.3488 143.031 75.5681C142.888 75.7809 142.799 76.0464 142.765 76.3646L142.429 79.5368L141.683 79.4576ZM149.22 80.3782C148.71 80.324 148.276 80.1473 147.919 79.8479C147.562 79.5486 147.321 79.1677 147.196 78.7052L147.854 78.4734C147.972 78.8144 148.156 79.0954 148.408 79.3165C148.666 79.5384 148.961 79.6668 149.292 79.702C149.61 79.7358 149.887 79.6881 150.122 79.5588C150.358 79.4229 150.489 79.229 150.515 78.9771C150.535 78.7915 150.498 78.64 150.403 78.5227C150.309 78.3987 150.195 78.2995 150.062 78.2251C149.929 78.1506 149.811 78.0945 149.708 78.0567L148.966 77.7567C148.49 77.5654 148.156 77.3322 147.964 77.0571C147.772 76.7819 147.693 76.4786 147.729 76.1472C147.762 75.8356 147.87 75.5722 148.054 75.3571C148.237 75.1419 148.472 74.9858 148.757 74.8887C149.042 74.7916 149.351 74.7606 149.682 74.7958C150.133 74.8436 150.528 75.0062 150.867 75.2836C151.214 75.555 151.441 75.9076 151.549 76.3415L150.881 76.5723C150.78 76.2599 150.613 76.0074 150.378 75.815C150.151 75.6166 149.885 75.5012 149.58 75.4688C149.282 75.4372 149.035 75.4881 148.84 75.6215C148.645 75.755 148.535 75.9378 148.511 76.1698C148.492 76.3488 148.523 76.4963 148.604 76.6122C148.686 76.7281 148.784 76.8189 148.897 76.8846C149.018 76.951 149.123 77.0024 149.213 77.0388L150.07 77.3912C150.488 77.5629 150.802 77.794 151.012 78.0845C151.23 78.3758 151.319 78.7004 151.281 79.0583C151.25 79.35 151.14 79.6031 150.949 79.8176C150.765 80.0327 150.524 80.1914 150.225 80.2938C149.926 80.3895 149.592 80.4176 149.22 80.3782ZM152.99 80.6576L153.476 76.0734L152.412 75.9604L152.491 75.2146L153.555 75.3275L153.606 74.8502C153.646 74.479 153.761 74.1762 153.954 73.9419C154.147 73.7009 154.387 73.5286 154.673 73.4248C154.958 73.3211 155.257 73.2857 155.569 73.3188C155.635 73.3258 155.711 73.3406 155.795 73.363C155.881 73.3787 155.949 73.3961 156.001 73.415L155.929 74.0912C155.884 74.073 155.822 74.0597 155.742 74.0512C155.664 74.0361 155.608 74.0269 155.574 74.0233C155.256 73.9896 154.983 74.0377 154.755 74.1676C154.526 74.2976 154.392 74.5515 154.352 74.9294L154.301 75.4067L155.604 75.545L155.525 76.2908L154.222 76.1525L153.736 80.7368L152.99 80.6576ZM158.459 81.3588C157.962 81.306 157.524 81.1388 157.145 80.8573C156.773 80.5698 156.494 80.2015 156.307 79.7526C156.12 79.3037 156.055 78.8108 156.112 78.2738C156.169 77.7368 156.332 77.2748 156.601 76.8877C156.871 76.4939 157.21 76.1981 157.62 76.0003C158.037 75.8031 158.487 75.7303 158.971 75.7816C159.355 75.8224 159.689 75.9316 159.972 76.1091C160.262 76.2807 160.5 76.5004 160.686 76.7682C160.873 77.0293 161.007 77.3184 161.087 77.6353C161.168 77.9456 161.192 78.2598 161.158 78.5781C161.151 78.6443 161.139 78.7202 161.124 78.8057C161.109 78.8846 161.09 78.9664 161.067 79.0512L156.563 78.5731L156.637 77.877L160.714 78.3097L160.324 78.57C160.422 78.2117 160.414 77.8823 160.298 77.5818C160.19 77.2753 160.012 77.0251 159.765 76.8312C159.518 76.6307 159.228 76.5129 158.897 76.4777C158.566 76.4425 158.248 76.496 157.945 76.6381C157.648 76.7809 157.404 76.9997 157.211 77.2944C157.02 77.5824 156.918 77.9404 156.906 78.3682C156.828 78.7889 156.855 79.1672 156.987 79.503C157.126 79.8329 157.333 80.0995 157.606 80.3028C157.886 80.5069 158.195 80.6268 158.533 80.6627C158.924 80.7042 159.262 80.6462 159.547 80.4887C159.832 80.3313 160.072 80.1221 160.268 79.8612L160.868 80.2669C160.737 80.4943 160.551 80.6991 160.31 80.8814C160.07 81.0571 159.791 81.1917 159.473 81.2853C159.162 81.373 158.824 81.3975 158.459 81.3588ZM162.164 81.6312L162.729 76.3012L163.475 76.3803L163.382 77.2554L163.297 77.1156C163.449 76.877 163.659 76.6982 163.927 76.5791C164.201 76.4607 164.52 76.4208 164.885 76.4595L165.223 76.4954L165.144 77.2412L164.676 77.1916C164.292 77.1508 163.971 77.2374 163.713 77.4515C163.456 77.6655 163.304 77.9913 163.258 78.4288L162.909 81.7104L162.164 81.6312ZM167.361 82.3035C166.85 82.2493 166.416 82.0725 166.059 81.7732C165.702 81.4738 165.461 81.0929 165.336 80.6305L165.994 80.3986C166.112 80.7396 166.297 81.0207 166.548 81.2418C166.806 81.4636 167.101 81.5921 167.432 81.6273C167.751 81.6611 168.027 81.6133 168.262 81.4841C168.498 81.3482 168.629 81.1543 168.656 80.9023C168.675 80.7167 168.638 80.5652 168.543 80.4479C168.449 80.324 168.335 80.2248 168.203 80.1503C168.07 80.0759 167.952 80.0198 167.848 79.982L167.106 79.682C166.63 79.4907 166.296 79.2575 166.104 78.9823C165.912 78.7072 165.834 78.4039 165.869 78.0724C165.902 77.7608 166.01 77.4975 166.194 77.2823C166.378 77.0672 166.612 76.9111 166.897 76.8139C167.183 76.7168 167.491 76.6859 167.822 76.721C168.273 76.7689 168.668 76.9315 169.008 77.2088C169.354 77.4803 169.582 77.8329 169.69 78.2667L169.022 78.4975C168.921 78.1851 168.753 77.9327 168.519 77.7402C168.292 77.5418 168.026 77.4264 167.721 77.3941C167.422 77.3624 167.176 77.4133 166.981 77.5468C166.785 77.6803 166.675 77.863 166.651 78.0951C166.632 78.2741 166.663 78.4215 166.745 78.5374C166.826 78.6534 166.924 78.7442 167.038 78.8099C167.158 78.8763 167.263 78.9277 167.353 78.964L168.211 79.3165C168.628 79.4882 168.942 79.7193 169.153 80.0098C169.37 80.301 169.459 80.6256 169.421 80.9836C169.39 81.2753 169.28 81.5284 169.089 81.7428C168.906 81.958 168.664 82.1167 168.365 82.219C168.067 82.3147 167.732 82.3429 167.361 82.3035ZM126.873 90.9588L127.66 83.5504L130.096 83.809C130.832 83.8871 131.455 84.1075 131.967 84.4701C132.479 84.8262 132.854 85.2984 133.093 85.887C133.333 86.4689 133.413 87.1377 133.333 87.8935C133.253 88.6426 133.035 89.2798 132.678 89.805C132.32 90.3302 131.853 90.7164 131.277 90.9637C130.702 91.2109 130.046 91.2955 129.31 91.2174L126.873 90.9588ZM127.748 90.2975L129.389 90.4716C129.959 90.5321 130.466 90.4652 130.909 90.2709C131.352 90.0699 131.71 89.7593 131.983 89.339C132.262 88.9195 132.434 88.4081 132.498 87.8048C132.562 87.2015 132.501 86.6688 132.315 86.2066C132.13 85.7378 131.842 85.3619 131.45 85.079C131.058 84.7893 130.58 84.6146 130.017 84.5548L128.376 84.3807L127.748 90.2975ZM136.628 92.1148C136.124 92.0613 135.679 91.8934 135.293 91.6111C134.908 91.3222 134.615 90.9559 134.415 90.5122C134.221 90.0626 134.153 89.5693 134.21 89.0323C134.266 88.502 134.435 88.0406 134.718 87.6483C135.001 87.256 135.358 86.962 135.788 86.7662C136.225 86.5645 136.702 86.4912 137.219 86.546C137.736 86.6009 138.184 86.7691 138.563 87.0507C138.949 87.333 139.235 87.6953 139.423 88.1376C139.617 88.5806 139.686 89.0705 139.629 89.6075C139.571 90.1511 139.397 90.6221 139.107 91.0203C138.817 91.4119 138.455 91.7053 138.018 91.9003C137.588 92.096 137.125 92.1675 136.628 92.1148ZM136.707 91.3689C137.065 91.4069 137.396 91.3516 137.7 91.2028C138.011 91.0548 138.265 90.8338 138.464 90.5398C138.67 90.2465 138.793 89.9076 138.834 89.5231C138.874 89.1386 138.825 88.7847 138.685 88.4615C138.551 88.1389 138.348 87.8727 138.076 87.6627C137.81 87.4535 137.498 87.3298 137.14 87.2918C136.782 87.2539 136.447 87.3089 136.137 87.4569C135.833 87.6057 135.578 87.8234 135.373 88.11C135.169 88.3967 135.046 88.7323 135.005 89.1168C134.964 89.5013 135.014 89.8585 135.153 90.1883C135.292 90.5182 135.495 90.7878 135.761 90.997C136.034 91.207 136.349 91.331 136.707 91.3689ZM140.661 92.4221L141.226 87.092L141.972 87.1712L141.862 88.2054L141.697 88.1477C141.867 87.817 142.111 87.5681 142.43 87.4008C142.756 87.2343 143.118 87.1722 143.516 87.2144C143.894 87.2545 144.223 87.3766 144.503 87.5806C144.79 87.7853 145.003 88.0493 145.143 88.3726C145.29 88.6899 145.344 89.0375 145.304 89.4154L144.937 92.8759L144.191 92.7968L144.527 89.6246C144.562 89.2997 144.531 89.0183 144.436 88.7802C144.347 88.5429 144.203 88.3533 144.004 88.2114C143.811 88.0636 143.58 87.9753 143.308 87.9465C143.036 87.9176 142.787 87.9549 142.562 88.0584C142.337 88.1552 142.153 88.3133 142.009 88.5326C141.865 88.7454 141.777 89.0109 141.743 89.3291L141.406 92.5013L140.661 92.4221ZM148.775 93.4039C148.277 93.3512 147.839 93.184 147.46 92.9024C147.089 92.6149 146.809 92.2467 146.622 91.7978C146.435 91.3489 146.37 90.8559 146.427 90.319C146.484 89.782 146.647 89.3199 146.916 88.9328C147.186 88.5391 147.526 88.2433 147.936 88.0454C148.352 87.8483 148.802 87.7754 149.286 87.8268C149.671 87.8676 150.004 87.9767 150.287 88.1542C150.577 88.3258 150.816 88.5455 151.002 88.8133C151.188 89.0745 151.322 89.3635 151.402 89.6805C151.483 89.9907 151.507 90.305 151.473 90.6232C151.466 90.6895 151.455 90.7654 151.439 90.8509C151.424 90.9297 151.405 91.0115 151.383 91.0963L146.878 90.6182L146.952 89.9221L151.029 90.3548L150.639 90.6152C150.738 90.2569 150.729 89.9275 150.614 89.6269C150.505 89.3204 150.327 89.0703 150.08 88.8764C149.833 88.6759 149.544 88.558 149.212 88.5229C148.881 88.4877 148.563 88.5411 148.26 88.6833C147.963 88.8261 147.719 89.0448 147.527 89.3395C147.335 89.6276 147.234 89.9855 147.222 90.4133C147.143 90.8341 147.17 91.2124 147.302 91.5482C147.442 91.8781 147.648 92.1447 147.921 92.348C148.201 92.552 148.51 92.672 148.849 92.7078C149.24 92.7494 149.578 92.6914 149.863 92.5339C150.147 92.3764 150.388 92.1673 150.583 91.9064L151.183 92.3121C151.052 92.5395 150.866 92.7443 150.625 92.9266C150.386 93.1023 150.106 93.2369 149.788 93.3305C149.477 93.4182 149.139 93.4426 148.775 93.4039Z" fill="black"/>
<circle cx="179.703" cy="38.1005" r="3.63899" transform="rotate(6.05823 179.703 38.1005)" fill="#A8D9DE"/>
<path d="M46.818 77.2117L28.2539 66.6036L32.2984 57.7058L58.5874 52.0436L89.3253 48.4036L124.917 117.159L115.889 122.198C110.815 125.03 104.541 124.568 99.9361 121.022L70.3351 98.2297C68.2047 96.5892 66.5539 94.4067 65.5553 91.9101L65.0456 90.6359C64.3671 88.9396 65.1021 87.0064 66.7362 86.1893C68.1261 85.4944 68.4661 83.6632 67.4183 82.5156L65.1846 80.0692C62.6756 77.3213 58.726 76.4167 55.2712 77.7986C52.5114 78.9025 49.3987 78.6864 46.818 77.2117Z" fill="#414141"/>
<path d="M70.721 88.8482C66.5417 87.9045 57.6978 87.0686 55.7565 91.2749C53.3298 96.5327 53.3298 112.711 70.721 136.168C88.1122 159.626 -18.6836 175.263 8.43634 136.168C39.5788 91.2749 116.019 202.093 187.606 163.671" stroke="black" stroke-width="7.26817"/>
<path d="M70.3307 87.6144C70.6151 87.0455 71.1714 86.6621 71.8044 86.5988L73.6343 86.4158V88.9303H70.8088L70.3261 87.7237C70.312 87.6883 70.3136 87.6485 70.3307 87.6144Z" fill="#D9D9D9" stroke="black" stroke-width="1.45363"/>
<path d="M70.2346 88.5786C70.2346 88.2355 70.5128 87.9573 70.856 87.9573H72.8255V90.5481H72.2041C71.1164 90.5481 70.2346 89.6663 70.2346 88.5786Z" fill="#D9D9D9" stroke="black" stroke-width="1.45363"/>
<path d="M100.833 101.974L85.0051 90.2201C76.8941 84.1971 78.6319 71.5918 88.07 67.9881L104.409 61.7497C108.382 60.2328 112.848 60.7882 116.329 63.2318L131.145 73.6348C139.094 79.2158 138.173 91.2692 129.47 95.5788L114.143 103.168C109.834 105.301 104.693 104.84 100.833 101.974Z" stroke="black" stroke-width="1.45363"/>
<path d="M100.797 120.394L77.3464 102.397C74.1901 99.9749 72.3398 96.2226 72.3398 92.2439V77.1193L106.866 77.8461C109.406 77.8996 111.872 78.7076 113.951 80.1673L131.145 92.2392C139.093 97.8202 138.173 109.874 129.469 114.183L114.268 121.71C109.894 123.876 104.669 123.365 100.797 120.394Z" fill="#6A6A6A" stroke="black" stroke-width="1.45363"/>
<path opacity="0.7" d="M102.635 61.9504L88.4498 67.3259C78.9287 70.9339 77.2285 83.6758 85.4704 89.6541L93.2617 95.3055C102.785 102.213 108.634 113.09 109.145 124.844L116.265 133.943C120.443 139.28 128.057 140.436 133.629 136.578L151.666 124.091C156.779 120.551 158.607 113.849 156.001 108.203L150.324 95.9073C147.124 88.9744 142.159 83.0034 135.926 78.5918L114.565 63.472C111.089 61.0118 106.617 60.4414 102.635 61.9504Z" fill="#414141"/>
<path d="M137.578 78.3797L115.123 62.4861C111.787 60.1243 107.522 59.4985 103.648 60.8022L76.7887 69.8393C72.3268 72.175 71.8799 78.3885 75.9616 81.3388L102.203 100.306C107.163 103.891 110.936 108.879 113.035 114.628L119.695 132.862C122.532 140.63 131.88 143.708 138.777 139.146L160.977 124.463C162.47 123.475 163.433 121.861 163.592 120.078C163.692 118.964 163.472 117.845 162.959 116.852L151.124 93.9528C147.92 87.7525 143.274 82.4119 137.578 78.3797Z" fill="#8F8F8F" stroke="black" stroke-width="1.45363"/>
<path d="M105.061 58.7147L90.9199 64.0734C81.3898 67.6848 79.6981 80.4439 87.9577 86.4141L100.6 95.5517C107.658 100.654 113.028 107.753 116.016 115.933L121.312 130.435C124.149 138.203 133.497 141.281 140.395 136.719L155.917 126.453C161.134 123.002 163.093 116.285 160.548 110.571L152.735 93.027C149.547 85.8679 144.489 79.7002 138.092 75.1726L116.99 60.2362C113.515 57.7761 109.043 57.2057 105.061 58.7147Z" fill="#D9D9D9" stroke="black" stroke-width="1.45363"/>
<path d="M114.805 63.3682L82.4492 76.7149L84.067 77.9282L116.827 64.5815L114.805 63.3682Z" fill="#414141" stroke="black" stroke-width="1.45363"/>
<path d="M119.66 68.6259L88.9219 81.9726L101.826 90.8576C109.499 96.1406 115.439 103.574 118.899 112.224L119.255 113.115L149.184 96.1282C145.746 88.7221 140.332 82.4073 133.538 77.878L119.66 68.6259Z" fill="#A8D9DE" stroke="black" stroke-width="1.45363"/>
<path d="M120.469 117.564L128.153 113.115L129.367 116.755" stroke="black" stroke-width="1.45363" stroke-linecap="round" stroke-linejoin="round"/>
<path d="M123.703 124.844L131.388 120.395L132.601 124.035" stroke="black" stroke-width="1.45363" stroke-linecap="round" stroke-linejoin="round"/>
<path d="M126.938 131.315L134.622 126.866L135.835 130.506" stroke="black" stroke-width="1.45363" stroke-linecap="round" stroke-linejoin="round"/>
<path d="M131.793 111.093L139.477 106.644L140.691 110.284" stroke="black" stroke-width="1.45363" stroke-linecap="round" stroke-linejoin="round"/>
<path d="M135.027 118.373L142.712 113.924L143.925 117.564" stroke="black" stroke-width="1.45363" stroke-linecap="round" stroke-linejoin="round"/>
<path d="M138.266 124.844L145.95 120.395L147.163 124.035" stroke="black" stroke-width="1.45363" stroke-linecap="round" stroke-linejoin="round"/>
<path d="M143.117 103.813L150.802 99.3639L152.015 103.004" stroke="black" stroke-width="1.45363" stroke-linecap="round" stroke-linejoin="round"/>
<path d="M146.352 111.093L154.036 106.644L155.249 110.284" stroke="black" stroke-width="1.45363" stroke-linecap="round" stroke-linejoin="round"/>
<path d="M149.59 117.564L157.274 113.115L158.488 116.755" stroke="black" stroke-width="1.45363" stroke-linecap="round" stroke-linejoin="round"/>
<path d="M61.8241 47.1903L76.3839 42.4425C89.5548 38.1476 103.927 43.7428 110.727 55.8126L115.211 63.7726L83.6642 76.7148L75.2517 60.537M58.1841 49.6169L54.4089 47.5578C53.9782 47.3228 53.4707 47.2721 53.002 47.417L18.7095 58.0229C17.1609 58.5019 16.967 60.6153 18.4026 61.3681L39.3156 72.3347C43.7445 74.6571 49.206 72.5594 50.9413 67.8693L53.1418 61.9222C56.7895 52.0635 70.402 51.2107 75.2517 60.537V60.537M75.2517 60.537L46.8596 74.6926" stroke="black" stroke-width="1.45363"/>
<path d="M83.6627 71.0527L105.503 62.5593M84.876 73.0749L99.0317 67.4126M71.9338 48.8081L83.2583 44.7637M73.1471 50.4259L94.5827 43.1459M74.7649 53.257L99.8405 44.7637M23.8047 60.9415L39.9825 55.6837M27.8491 63.3682L54.1381 54.4704M31.8936 65.3904L54.1381 57.7059" stroke="#D9D9D9" stroke-width="1.45363"/>
<path d="M75.1703 60.537L48.8813 73.4793L53.1981 61.9254C56.8456 52.1631 70.323 51.3115 75.1703 60.537Z" fill="#8F8F8F"/>
<circle cx="132.186" cy="15.5223" r="2.92306" transform="rotate(6.05823 132.186 15.5223)" fill="#A8D9DE" stroke="black" stroke-width="1.45363"/>
<circle cx="149.608" cy="17.3711" r="2.92306" transform="rotate(6.05823 149.608 17.3711)" fill="#A8D9DE" stroke="black" stroke-width="1.45363"/>
<circle cx="167.029" cy="19.2203" r="2.92306" transform="rotate(6.05823 167.029 19.2203)" fill="#A8D9DE" stroke="black" stroke-width="1.45363"/>
<circle cx="184.451" cy="21.0691" r="2.92306" transform="rotate(6.05823 184.451 21.0691)" fill="#A8D9DE" stroke="black" stroke-width="1.45363"/>
<path fill-rule="evenodd" clip-rule="evenodd" d="M138.705 8.07979L140.973 8.3205C140.98 7.54404 140.879 6.76805 140.669 6.01967C140.222 4.43101 139.31 3.05341 138.069 2.09572C136.829 1.13802 135.327 0.652444 133.793 0.712601C132.259 0.772757 130.776 1.37537 129.568 2.42907C128.361 3.48278 127.494 4.93013 127.101 6.55172C126.707 8.17331 126.808 9.8807 127.388 11.4151C127.967 12.9495 128.995 14.2272 130.313 15.0545C131.292 15.6683 132.391 16.0094 133.516 16.0571C134.176 16.0851 134.642 15.4802 134.576 14.8237C134.505 14.1312 133.864 13.6532 133.176 13.5491C132.577 13.4587 131.998 13.2445 131.471 12.9137C130.575 12.3519 129.878 11.4844 129.484 10.4425C129.091 9.40067 129.022 8.24135 129.289 7.14029C129.557 6.03924 130.145 5.05648 130.965 4.34102C131.785 3.62555 132.792 3.21638 133.834 3.17553C134.875 3.13468 135.895 3.46439 136.737 4.11467C137.579 4.76494 138.199 5.70033 138.502 6.77903C138.621 7.20313 138.689 7.64029 138.705 8.07979Z" fill="black"/>
<path fill-rule="evenodd" clip-rule="evenodd" d="M155.9 9.90464L158.168 10.1453C158.175 9.36888 158.074 8.59289 157.864 7.8445C157.418 6.25584 156.505 4.87824 155.265 3.92055C154.024 2.96285 152.523 2.47727 150.989 2.53743C149.455 2.59759 147.971 3.20019 146.764 4.2539C145.556 5.30761 144.69 6.75496 144.296 8.37655C143.903 9.99814 144.003 11.7055 144.583 13.2399C145.163 14.7743 146.19 16.052 147.509 16.8793C148.487 17.4932 149.587 17.8342 150.712 17.882C151.371 17.9099 151.838 17.3051 151.771 16.6486C151.7 15.956 151.059 15.478 150.371 15.374C149.773 15.2835 149.193 15.0694 148.666 14.7385C147.771 14.1767 147.073 13.3092 146.68 12.2673C146.286 11.2255 146.218 10.0662 146.485 8.96512C146.752 7.86407 147.34 6.88131 148.16 6.16585C148.98 5.45038 149.987 5.04121 151.029 5.00036C152.071 4.95951 153.09 5.28922 153.932 5.9395C154.775 6.58977 155.394 7.52516 155.697 8.60386C155.816 9.02797 155.884 9.46513 155.9 9.90464Z" fill="black"/>
<path fill-rule="evenodd" clip-rule="evenodd" d="M173.092 11.7295L175.36 11.9702C175.367 11.1937 175.265 10.4177 175.055 9.66933C174.609 8.08067 173.697 6.70307 172.456 5.74537C171.215 4.78768 169.714 4.3021 168.18 4.36226C166.646 4.42242 165.163 5.02502 163.955 6.07873C162.747 7.13244 161.881 8.57979 161.488 10.2014C161.094 11.823 161.195 13.5304 161.774 15.0647C162.354 16.5991 163.381 17.8768 164.7 18.7041C165.678 19.318 166.778 19.6591 167.903 19.7068C168.562 19.7348 169.029 19.1299 168.962 18.4734C168.892 17.7808 168.251 17.3028 167.563 17.1988C166.964 17.1083 166.385 16.8942 165.857 16.5633C164.962 16.0016 164.265 15.134 163.871 14.0922C163.477 13.0503 163.409 11.891 163.676 10.79C163.943 9.68889 164.532 8.70614 165.352 7.99067C166.172 7.27521 167.179 6.86604 168.22 6.82519C169.262 6.78434 170.281 7.11405 171.124 7.76432C171.966 8.4146 172.586 9.34999 172.889 10.4287C173.008 10.8528 173.075 11.29 173.092 11.7295Z" fill="black"/>
<path fill-rule="evenodd" clip-rule="evenodd" d="M190.287 13.5542L191.118 13.6424C191.468 13.7219 192.068 13.8998 192.549 14.0474C192.583 13.187 192.484 12.3236 192.251 11.494C191.804 9.90538 190.892 8.52778 189.651 7.57008C188.411 6.61238 186.909 6.12681 185.375 6.18697C183.841 6.24712 182.358 6.84973 181.15 7.90344C179.943 8.95715 179.076 10.4045 178.683 12.0261C178.289 13.6477 178.39 15.3551 178.97 16.8894C179.55 18.4238 180.577 19.7015 181.895 20.5288C182.874 21.1427 183.973 21.4838 185.098 21.5315C185.758 21.5595 186.224 20.9546 186.158 20.2981C186.087 19.6055 185.446 19.1275 184.758 19.0235C184.159 18.933 183.58 18.7189 183.053 18.388C182.157 17.8263 181.46 16.9587 181.066 15.9169C180.673 14.875 180.604 13.7157 180.871 12.6147C181.139 11.5136 181.727 10.5309 182.547 9.81538C183.367 9.09991 184.374 8.69074 185.416 8.6499C186.457 8.60905 187.477 8.93876 188.319 9.58903C189.161 10.2393 189.781 11.1747 190.084 12.2534C190.203 12.6775 190.271 13.1147 190.287 13.5542Z" fill="black"/>
</svg>
