<svg width="986" height="432" viewBox="0 0 986 432" fill="none" xmlns="http://www.w3.org/2000/svg">
<mask id="mask0_1225_5457" style="mask-type:alpha" maskUnits="userSpaceOnUse" x="0" y="0" width="986" height="432">
<path d="M0 24C0 12.6863 0 7.02944 3.51472 3.51472C7.02944 0 12.6863 0 24 0H962C973.314 0 978.971 0 982.485 3.51472C986 7.02944 986 12.6863 986 24V408C986 419.314 986 424.971 982.485 428.485C978.971 432 973.314 432 962 432H24C12.6863 432 7.02944 432 3.51472 428.485C0 424.971 0 419.314 0 408V24Z" fill="black"/>
</mask>
<g mask="url(#mask0_1225_5457)">
<path opacity="0.0344828" d="M192.833 187.57C196.942 183.403 203.152 180.802 211.369 179.753C219.594 178.704 229.752 179.221 241.618 181.24C265.349 185.276 295.68 195.273 330.567 210.376C400.324 240.575 488.081 291.099 577.282 354.795C666.483 418.49 740.19 483.263 787.251 536.48C810.787 563.095 827.623 586.779 836.414 605.965C840.811 615.559 843.174 623.983 843.387 631.058C843.6 638.126 841.669 643.783 837.56 647.95C833.451 652.117 827.24 654.718 819.024 655.767C810.799 656.817 800.64 656.299 788.774 654.281C765.044 650.244 734.712 640.248 699.826 625.145C630.069 594.945 542.312 544.422 453.111 480.726C363.909 417.03 290.203 352.258 243.142 299.041C219.606 272.426 202.77 248.742 193.978 229.555C189.582 219.961 187.219 211.537 187.005 204.462C186.792 197.394 188.724 191.738 192.833 187.57Z" stroke="#969696" stroke-opacity="0.15" stroke-width="2"/>
<path opacity="0.0689655" d="M217.644 161.681C222.174 157.826 228.637 155.695 236.929 155.259C245.231 154.824 255.296 156.093 266.908 158.983C290.131 164.763 319.321 176.97 352.526 194.602C418.922 229.859 501.167 286.697 583.504 356.765C665.841 426.833 732.631 496.824 774.061 553.326C794.78 581.583 809.124 606.423 815.917 626.186C819.313 636.068 820.805 644.634 820.292 651.698C819.781 658.755 817.277 664.254 812.746 668.11C808.216 671.965 801.753 674.096 793.461 674.531C785.16 674.967 775.094 673.698 763.482 670.808C740.259 665.028 711.069 652.821 677.864 635.188C611.469 599.932 529.223 543.094 446.886 473.026C364.55 402.958 297.76 332.967 256.33 276.465C235.61 248.208 221.266 223.367 214.474 203.605C211.077 193.723 209.586 185.157 210.098 178.093C210.609 171.036 213.113 165.537 217.644 161.681Z" stroke="#969696" stroke-opacity="0.15" stroke-width="2"/>
<path opacity="0.103448" d="M244.72 137.718C254.567 130.687 271.456 131.166 294.09 138.676C316.63 146.156 344.455 160.48 375.726 180.507C438.255 220.551 514.364 283.271 589.21 359.178C664.056 435.084 723.421 509.76 758.905 569.117C776.651 598.802 788.395 624.609 793.136 644.797C797.898 665.07 795.519 679.307 785.672 686.338C775.826 693.37 758.936 692.891 736.302 685.38C713.763 677.901 685.938 663.577 654.666 643.55C592.137 603.505 516.028 540.786 441.183 464.879C366.337 388.973 306.971 314.297 271.488 254.94C253.742 225.255 241.998 199.448 237.256 179.26C232.495 158.987 234.874 144.749 244.72 137.718Z" stroke="#969696" stroke-opacity="0.15" stroke-width="2"/>
<path opacity="0.137931" d="M273.848 115.845C284.395 109.56 301.181 111.298 322.948 120.454C344.633 129.576 370.883 145.907 399.982 168.176C458.169 212.704 527.563 280.827 594.348 361.994C661.133 443.161 712.623 521.953 741.891 583.713C756.528 614.6 765.583 641.177 768.239 661.637C770.905 682.175 767.083 696.193 756.536 702.477C745.989 708.762 729.203 707.024 707.436 697.868C685.751 688.746 659.501 672.415 630.402 650.146C572.215 605.619 502.821 537.495 436.036 456.328C369.251 375.161 317.761 296.369 288.493 234.609C273.856 203.723 264.801 177.146 262.145 156.686C259.479 136.147 263.301 122.13 273.848 115.845Z" stroke="#969696" stroke-opacity="0.15" stroke-width="2"/>
<path opacity="0.172414" d="M304.824 96.2053C315.992 90.7181 332.544 93.7037 353.281 104.435C373.946 115.128 398.421 133.342 425.128 157.683C478.53 206.355 540.681 279.363 598.898 365.173C657.115 450.983 700.337 533.291 723.167 596.983C734.585 628.836 740.883 655.981 741.433 676.557C741.985 697.205 736.747 710.897 725.579 716.384C714.411 721.871 697.859 718.886 677.122 708.155C656.457 697.461 631.982 679.247 605.275 654.906C551.873 606.235 489.722 533.226 431.505 447.416C373.288 361.607 330.066 279.298 307.236 215.606C295.818 183.753 289.52 156.608 288.97 136.032C288.418 115.384 293.656 101.693 304.824 96.2053Z" stroke="#969696" stroke-opacity="0.15" stroke-width="2"/>
<path opacity="0.206897" d="M337.383 78.9254C349.087 74.2811 365.277 78.4915 384.828 90.7143C404.316 102.898 426.831 122.856 450.942 149.084C499.153 201.529 553.589 278.866 602.795 368.666C652.001 458.465 686.628 543.663 702.848 608.803C710.959 641.38 714.453 668.886 712.894 689.422C711.329 710.024 704.713 723.285 693.009 727.929C681.305 732.573 665.115 728.363 645.564 716.14C626.076 703.956 603.561 683.998 579.45 657.77C531.239 605.326 476.803 527.988 427.597 438.189C378.391 348.389 343.764 263.191 327.544 198.051C319.433 165.474 315.939 137.968 317.499 117.432C319.063 96.8305 325.68 83.5698 337.383 78.9254Z" stroke="#969696" stroke-opacity="0.15" stroke-width="2"/>
<path opacity="0.241379" d="M371.297 64.1168C383.446 60.3538 399.148 65.7567 417.366 79.3782C435.53 92.9597 455.913 114.509 477.246 142.425C519.901 198.243 566.207 279.322 606.028 372.427C645.85 465.533 671.618 552.972 681.104 619.064C685.848 652.118 686.511 679.776 682.855 700.116C679.188 720.516 671.24 733.244 659.092 737.007C646.943 740.77 631.24 735.367 613.022 721.745C594.858 708.164 574.475 686.614 553.142 658.699C510.487 602.881 464.181 521.802 424.36 428.697C384.539 335.591 358.77 248.151 349.284 182.059C344.54 149.006 343.877 121.348 347.533 101.008C351.2 80.6079 359.148 67.8798 371.297 64.1168Z" stroke="#969696" stroke-opacity="0.15" stroke-width="2"/>
<path opacity="0.275862" d="M406.303 51.8677C418.803 49.0175 433.896 55.5708 450.645 70.4876C467.347 85.3632 485.445 108.341 503.836 137.731C540.611 196.499 578.436 280.701 608.57 376.404C638.704 472.108 655.419 561.124 658.1 627.665C659.44 660.944 657.268 688.543 651.543 708.533C645.803 728.578 636.582 740.675 624.083 743.525C611.583 746.375 596.491 739.822 579.742 724.905C563.039 710.03 544.942 687.052 526.55 657.662C489.775 598.894 451.95 514.692 421.816 418.989C391.683 323.285 374.968 234.269 372.287 167.728C370.946 134.449 373.118 106.85 378.843 86.86C384.584 66.8152 393.804 54.7179 406.303 51.8677Z" stroke="#969696" stroke-opacity="0.15" stroke-width="2"/>
<path opacity="0.310345" d="M442.14 42.2486C454.893 40.335 469.259 47.9878 484.413 64.0866C499.528 80.1434 515.202 104.375 530.513 135.016C561.128 196.286 590.186 282.972 610.403 380.545C630.62 478.118 638.155 568.033 634.011 634.519C631.938 667.769 626.948 695.101 619.198 714.588C611.428 734.127 601.004 745.5 588.251 747.413C575.499 749.327 561.133 741.674 545.978 725.575C530.864 709.519 515.189 685.287 499.878 654.646C469.263 593.376 440.206 506.69 419.988 409.117C399.771 311.544 392.237 221.629 396.381 155.143C398.453 121.893 403.444 94.5611 411.194 75.0735C418.964 55.5347 429.388 44.1621 442.14 42.2486Z" stroke="#969696" stroke-opacity="0.15" stroke-width="2"/>
<path opacity="0.344828" d="M478.529 35.3094C491.434 34.3486 504.963 43.0408 518.409 60.2002C531.821 77.3162 544.954 102.617 557.068 134.277C581.291 197.583 601.36 286.093 611.507 384.794C621.654 483.494 619.951 573.625 609.014 639.549C603.544 672.518 595.774 699.375 586.058 718.213C576.317 737.099 564.768 747.658 551.863 748.619C538.958 749.58 525.429 740.888 511.983 723.728C498.57 706.612 485.438 681.312 473.324 649.651C449.1 586.345 429.032 497.835 418.884 399.135C408.737 300.435 410.44 210.304 421.378 144.38C426.848 111.41 434.618 84.5532 444.334 65.7153C454.074 46.8296 465.624 36.2702 478.529 35.3094Z" stroke="#969696" stroke-opacity="0.15" stroke-width="2"/>
<path opacity="0.37931" d="M515.196 31.0817C528.152 31.0817 540.739 40.7453 552.377 58.8359C563.984 76.8813 574.476 103.06 583.301 135.498C600.949 200.359 611.876 290.02 611.876 389.098C611.876 488.175 600.949 577.836 583.301 642.697C574.476 675.135 563.984 701.314 552.377 719.359C540.739 737.45 528.152 747.113 515.196 747.113C502.24 747.113 489.652 737.45 478.015 719.359C466.407 701.314 455.916 675.135 447.09 642.697C429.443 577.836 418.516 488.175 418.516 389.098C418.516 290.02 429.443 200.359 447.09 135.498C455.916 103.06 466.407 76.8813 478.015 58.8359C489.652 40.7453 502.24 31.0817 515.196 31.0817Z" stroke="#969696" stroke-opacity="0.15" stroke-width="2"/>
<path opacity="0.413793" d="M551.87 29.5747C564.775 30.5355 576.324 41.0948 586.065 59.9805C595.78 78.8185 603.551 105.676 609.021 138.645C619.958 204.569 621.661 294.7 611.514 393.4C601.367 492.1 581.298 580.611 557.075 643.917C544.961 675.577 531.828 700.878 518.416 717.994C504.97 735.153 491.441 743.845 478.536 742.884C465.631 741.924 454.081 731.364 444.341 712.479C434.625 693.641 426.855 666.783 421.385 633.814C410.447 567.89 408.744 477.759 418.891 379.059C429.038 280.359 449.107 191.848 473.33 128.542C485.445 96.8823 498.577 71.5815 511.989 54.4655C525.436 37.3061 538.964 28.6138 551.87 29.5747Z" stroke="#969696" stroke-opacity="0.15" stroke-width="2"/>
<path opacity="0.448276" d="M588.252 30.7806C601.005 32.6941 611.429 44.0667 619.199 63.6055C626.949 83.0931 631.939 110.425 634.012 143.675C638.156 210.161 630.621 300.076 610.404 397.649C590.187 495.222 561.13 581.908 530.514 643.178C515.203 673.819 499.529 698.051 484.414 714.107C469.26 730.206 454.894 737.859 442.141 735.945C429.389 734.032 418.965 722.659 411.195 703.12C403.445 683.633 398.455 656.301 396.382 623.051C392.238 556.565 399.772 466.65 419.989 369.077C440.207 271.504 469.264 184.818 499.879 123.548C515.19 92.9067 530.865 68.6754 545.979 52.6186C561.134 36.5198 575.5 28.867 588.252 30.7806Z" stroke="#969696" stroke-opacity="0.15" stroke-width="2"/>
<path opacity="0.482759" d="M624.08 34.6691C636.58 37.5193 645.8 49.6166 651.541 69.6615C657.266 89.6511 659.438 117.251 658.097 150.529C655.416 217.071 638.701 306.087 608.567 401.79C578.434 497.493 540.608 581.696 503.833 640.463C485.442 669.853 467.345 692.831 450.642 707.707C433.893 722.624 418.8 729.177 406.301 726.327C393.801 723.477 384.581 711.379 378.84 691.334C373.115 671.345 370.943 643.745 372.284 610.467C374.965 543.925 391.68 454.909 421.813 359.206C451.947 263.503 489.773 179.3 526.547 120.533C544.939 91.1425 563.036 68.1647 579.739 53.289C596.488 38.3723 611.581 31.8189 624.08 34.6691Z" stroke="#969696" stroke-opacity="0.15" stroke-width="2"/>
<path opacity="0.517241" d="M659.095 41.1855C671.244 44.9484 679.192 57.6766 682.859 78.0767C686.515 98.4168 685.852 126.075 681.108 159.128C671.622 225.22 645.853 312.66 606.032 405.765C566.21 498.871 519.904 579.949 477.249 635.768C455.917 663.683 435.534 685.233 417.369 698.814C399.151 712.436 383.449 717.839 371.3 714.076C359.151 710.313 351.203 697.584 347.536 677.184C343.88 656.844 344.543 629.187 349.287 596.133C358.773 530.041 384.542 442.601 424.363 349.496C464.184 256.39 510.491 175.312 553.146 119.494C574.478 91.5781 594.861 70.0284 613.026 56.4469C631.244 42.8253 646.946 37.4225 659.095 41.1855Z" stroke="#969696" stroke-opacity="0.15" stroke-width="2"/>
<path opacity="0.551724" d="M693.002 50.2635C704.705 54.9078 711.322 68.1685 712.886 88.7704C714.446 109.307 710.952 136.812 702.841 169.389C686.621 234.529 651.994 319.727 602.788 409.527C553.582 499.326 499.146 576.664 450.935 629.108C426.824 655.337 404.309 675.294 384.821 687.478C365.27 699.701 349.08 703.911 337.376 699.267C325.672 694.623 319.056 681.362 317.491 660.76C315.932 640.224 319.426 612.718 327.537 580.141C343.757 515.001 378.384 429.803 427.59 340.004C476.796 250.204 531.232 172.867 579.443 120.422C603.554 94.194 626.069 74.2363 645.557 62.0524C665.108 49.8295 681.298 45.6191 693.002 50.2635Z" stroke="#969696" stroke-opacity="0.15" stroke-width="2"/>
<path opacity="0.586207" d="M725.574 61.8099C736.742 67.2971 741.98 80.9885 741.428 101.637C740.878 122.213 734.58 149.357 723.163 181.211C700.332 244.903 657.11 327.211 598.893 413.021C540.676 498.831 478.525 571.839 425.123 620.511C398.416 644.852 373.941 663.066 353.276 673.759C332.54 684.49 315.987 687.476 304.819 681.988C293.651 676.501 288.413 662.81 288.965 642.162C289.515 621.585 295.813 594.441 307.231 562.588C330.061 498.896 373.284 416.587 431.501 330.777C489.718 244.968 551.868 171.959 605.27 123.288C631.977 98.9463 656.452 80.7326 677.117 70.0391C697.854 59.3082 714.406 56.3227 725.574 61.8099Z" stroke="#969696" stroke-opacity="0.15" stroke-width="2"/>
<path opacity="0.62069" d="M756.534 75.7157C767.081 82.0005 770.902 96.0181 768.237 116.557C765.581 137.017 756.526 163.593 741.889 194.48C712.621 256.24 661.131 335.032 594.346 416.199C527.56 497.366 458.167 565.489 399.98 610.017C370.88 632.286 344.63 648.617 322.946 657.739C301.179 666.895 284.393 668.633 273.846 662.348C263.298 656.064 259.477 642.046 262.143 621.507C264.798 601.047 273.853 574.471 288.491 543.584C317.759 481.824 369.248 403.032 436.034 321.865C502.819 240.698 572.213 172.575 630.399 128.047C659.499 105.778 685.749 89.4467 707.433 80.3253C729.201 71.169 745.986 69.4309 756.534 75.7157Z" stroke="#969696" stroke-opacity="0.15" stroke-width="2"/>
<path opacity="0.655172" d="M785.669 91.8557C795.515 98.8868 797.895 113.124 793.133 133.397C788.391 153.586 776.647 179.392 758.902 209.077C723.418 268.434 664.052 343.11 589.207 419.017C514.361 494.923 438.252 557.643 375.723 597.688C344.452 617.715 316.626 632.038 294.087 639.518C271.453 647.029 254.564 647.507 244.717 640.476C234.871 633.445 232.491 619.207 237.253 598.934C241.995 578.746 253.739 552.939 271.484 523.254C306.968 463.897 366.334 389.221 441.179 313.315C516.025 237.408 592.134 174.689 654.663 134.644C685.934 114.617 713.76 100.293 736.299 92.8138C758.933 85.3029 775.822 84.8247 785.669 91.8557Z" stroke="#969696" stroke-opacity="0.15" stroke-width="2"/>
<path opacity="0.689655" d="M812.739 110.085C817.27 113.941 819.774 119.441 820.285 126.497C820.797 133.562 819.306 142.127 815.909 152.009C809.117 171.772 794.773 196.612 774.053 224.87C732.623 281.372 665.833 351.362 583.497 421.43C501.16 491.498 418.914 548.336 352.519 583.593C319.314 601.225 290.124 613.432 266.901 619.212C255.289 622.102 245.223 623.372 236.922 622.936C228.63 622.501 222.167 620.37 217.637 616.514C213.106 612.659 210.602 607.159 210.091 600.102C209.579 593.038 211.07 584.472 214.466 574.591C221.259 554.828 235.603 529.988 256.322 501.73C297.752 445.228 364.542 375.237 446.879 305.169C529.216 235.101 611.461 178.263 677.857 143.007C711.062 125.375 740.252 113.168 763.475 107.388C775.087 104.497 785.152 103.228 793.454 103.664C801.746 104.099 808.209 106.23 812.739 110.085Z" stroke="#969696" stroke-opacity="0.15" stroke-width="2"/>
<path opacity="0.724138" d="M837.563 130.244C841.672 134.412 843.603 140.068 843.39 147.136C843.177 154.211 840.814 162.635 836.417 172.229C827.626 191.416 810.79 215.1 787.254 241.715C740.193 294.932 666.486 359.704 577.285 423.4C488.084 487.096 400.327 537.619 330.57 567.819C295.684 582.922 265.352 592.918 241.621 596.955C229.755 598.973 219.597 599.491 211.372 598.441C203.155 597.392 196.945 594.791 192.836 590.624C188.727 586.457 186.795 580.8 187.008 573.732C187.222 566.657 189.585 558.233 193.981 548.639C202.773 529.453 219.609 505.769 243.145 479.154C290.206 425.937 363.913 361.164 453.114 297.469C542.315 233.773 630.072 183.249 699.829 153.05C734.715 137.947 765.047 127.95 788.777 123.914C800.643 121.895 810.802 121.378 819.027 122.427C827.243 123.476 833.454 126.077 837.563 130.244Z" stroke="#969696" stroke-opacity="0.15" stroke-width="2"/>
<path opacity="0.758621" d="M859.911 152.156C863.568 156.601 864.915 162.371 863.978 169.398C863.041 176.43 859.824 184.648 854.461 193.881C843.736 212.345 824.537 234.692 798.364 259.461C746.029 308.987 665.966 368.048 570.579 424.887C475.192 481.726 382.592 525.549 310.004 550.461C273.702 562.92 242.459 570.63 218.402 572.891C206.372 574.022 196.198 573.784 188.112 572.128C180.033 570.474 174.122 567.423 170.464 562.978C166.807 558.533 165.46 552.762 166.396 545.736C167.334 538.703 170.551 530.486 175.914 521.253C186.639 502.789 205.838 480.441 232.011 455.672C284.346 406.146 364.409 347.085 459.796 290.247C555.183 233.408 647.782 189.584 720.37 164.673C756.673 152.214 787.916 144.504 811.973 142.243C824.002 141.112 834.177 141.35 842.263 143.006C850.342 144.66 856.253 147.71 859.911 152.156Z" stroke="#969696" stroke-opacity="0.15" stroke-width="2"/>
<path opacity="0.793103" d="M879.657 175.633C882.838 180.322 883.591 186.163 881.938 193.094C880.284 200.03 876.237 207.979 869.948 216.78C857.371 234.381 835.954 255.222 807.342 277.956C750.132 323.414 664.323 376.313 563.476 425.861C462.629 475.41 365.891 512.2 291.025 531.634C253.583 541.353 221.666 546.717 197.466 547.185C185.364 547.42 175.252 546.428 167.366 544.179C159.486 541.931 153.919 538.456 150.738 533.767C147.557 529.078 146.804 523.238 148.456 516.307C150.11 509.37 154.157 501.422 160.447 492.62C173.024 475.019 194.441 454.179 223.052 431.445C280.263 385.987 366.071 333.087 466.918 283.539C567.765 233.991 664.504 197.201 739.37 177.767C776.811 168.047 808.728 162.684 832.928 162.215C845.03 161.981 855.143 162.973 863.029 165.222C870.908 167.47 876.476 170.945 879.657 175.633Z" stroke="#969696" stroke-opacity="0.15" stroke-width="2"/>
<path opacity="0.827586" d="M896.617 200.475C899.3 205.371 899.454 211.239 897.098 218.022C894.74 224.809 889.894 232.429 882.726 240.732C868.392 257.335 844.921 276.508 814.088 297.035C752.438 338.078 661.535 384.413 555.996 426.293C450.457 468.174 350.317 497.65 273.742 511.458C235.446 518.363 203.099 521.34 178.94 520.011C166.859 519.347 156.885 517.609 149.259 514.783C141.638 511.959 136.456 508.087 133.773 503.191C131.091 498.295 130.936 492.428 133.293 485.645C135.651 478.857 140.497 471.238 147.665 462.935C161.998 446.332 185.47 427.158 216.302 406.632C277.953 365.588 368.855 319.254 474.394 277.373C579.934 235.492 680.074 206.017 756.648 192.209C794.944 185.303 827.291 182.327 851.45 183.655C863.532 184.319 873.505 186.058 881.131 188.883C888.752 191.707 893.934 195.579 896.617 200.475Z" stroke="#969696" stroke-opacity="0.15" stroke-width="2"/>
<path opacity="0.862069" d="M910.668 226.472C912.835 231.538 912.392 237.389 909.349 243.973C906.304 250.56 900.696 257.791 892.704 265.532C876.723 281.01 851.375 298.371 818.557 316.533C752.935 352.849 657.632 392.266 548.203 426.16C438.775 460.054 335.995 481.991 258.295 490.067C219.437 494.106 186.906 494.672 162.973 491.556C151.003 489.998 141.245 487.527 133.937 484.146C126.633 480.767 121.874 476.528 119.708 471.462C117.541 466.396 117.984 460.545 121.027 453.961C124.071 447.374 129.68 440.143 137.672 432.402C153.653 416.924 179.001 399.563 211.819 381.401C277.441 345.085 372.744 305.668 482.173 271.774C591.601 237.88 694.381 215.943 772.08 207.867C810.939 203.828 843.47 203.262 867.403 206.378C879.372 207.936 889.131 210.407 896.439 213.788C903.743 217.167 908.501 221.406 910.668 226.472Z" stroke="#969696" stroke-opacity="0.15" stroke-width="2"/>
<path opacity="0.896552" d="M921.726 253.403C923.363 258.601 922.326 264.392 918.619 270.726C914.912 277.062 908.583 283.851 899.828 290.97C882.322 305.206 855.29 320.621 820.736 336.28C751.643 367.592 652.664 399.79 540.18 425.44C427.695 451.089 323.058 465.319 244.825 467.602C205.7 468.743 173.233 466.894 149.708 462.015C137.943 459.575 128.473 456.389 121.54 452.479C114.608 448.57 110.307 443.997 108.671 438.798C107.034 433.6 108.071 427.809 111.777 421.475C115.485 415.138 121.813 408.35 130.569 401.23C148.075 386.995 175.107 371.579 209.661 355.92C278.754 324.609 377.733 292.41 490.217 266.761C602.702 241.112 707.338 226.882 785.572 224.599C824.697 223.458 857.164 225.306 880.689 230.185C892.454 232.626 901.924 235.812 908.857 239.722C915.788 243.63 920.089 248.204 921.726 253.403Z" stroke="#969696" stroke-opacity="0.15" stroke-width="2"/>
<path opacity="0.931035" d="M929.676 281.039C930.773 286.333 929.149 292.021 924.808 298.057C920.465 304.095 913.465 310.389 904.013 316.832C885.114 329.715 856.606 343.068 820.579 356.105C748.541 382.173 646.639 406.908 531.955 424.117C417.271 441.326 311.574 447.741 233.404 444.213C194.31 442.448 162.154 438.198 139.217 431.592C127.746 428.288 118.638 424.412 112.131 420.002C105.626 415.594 101.813 410.721 100.717 405.428C99.6197 400.134 101.244 394.446 105.585 388.41C109.927 382.372 116.928 376.078 126.379 369.635C145.278 356.752 173.787 343.399 209.814 330.362C281.852 304.294 383.753 279.559 498.437 262.35C613.121 245.141 718.818 238.726 796.989 242.255C836.083 244.019 868.238 248.269 891.176 254.875C902.647 258.179 911.755 262.055 918.262 266.465C924.767 270.873 928.579 275.746 929.676 281.039Z" stroke="#969696" stroke-opacity="0.15" stroke-width="2"/>
<path opacity="0.965517" d="M934.475 309.153C935.025 314.504 932.827 320.048 927.884 325.74C922.939 331.432 915.321 337.183 905.245 342.901C885.097 354.334 855.329 365.522 818.104 375.837C743.669 396.463 639.622 413.547 523.611 422.184C407.601 430.821 301.648 429.373 224.135 420.06C185.371 415.402 153.772 408.783 131.598 400.501C120.508 396.359 111.831 391.821 105.801 386.946C99.7711 382.071 96.4748 376.936 95.9247 371.585C95.3746 366.235 97.573 360.691 102.516 354.999C107.461 349.307 115.079 343.556 125.155 337.838C145.303 326.404 175.071 315.217 212.296 304.902C286.731 284.276 390.778 267.192 506.789 258.555C622.799 249.918 728.752 251.366 806.265 260.679C845.029 265.337 876.628 271.956 898.802 280.238C909.892 284.38 918.569 288.918 924.599 293.793C930.629 298.668 933.925 303.803 934.475 309.153Z" stroke="#969696" stroke-opacity="0.15" stroke-width="2"/>
<path d="M936.076 337.501C936.076 342.871 933.319 348.23 927.812 353.534C922.303 358.838 914.124 364.002 903.501 368.951C882.259 378.847 851.458 387.784 813.318 395.299C737.054 410.326 631.652 419.627 515.198 419.627C398.745 419.627 293.343 410.326 217.079 395.299C178.939 387.784 148.138 378.847 126.896 368.951C116.272 364.002 108.094 358.838 102.585 353.534C97.0774 348.23 94.3203 342.871 94.3203 337.501C94.3203 332.132 97.0774 326.772 102.585 321.469C108.094 316.165 116.272 311.001 126.896 306.052C148.138 296.156 178.939 287.219 217.079 279.704C293.343 264.677 398.745 255.376 515.198 255.376C631.652 255.376 737.054 264.677 813.318 279.704C851.458 287.219 882.259 296.156 903.501 306.052C914.124 311.001 922.303 316.165 927.812 321.469C933.319 326.772 936.076 332.132 936.076 337.501Z" stroke="#969696" stroke-opacity="0.15" stroke-width="2"/>
</g>
</svg>
