<svg width="278" height="254" viewBox="0 0 278 254" fill="none" xmlns="http://www.w3.org/2000/svg">
<path d="M79.2031 169.819L83.424 168.764L102.418 163.839L153.42 177.557L127.039 190.572L79.2031 169.819Z" fill="#D9D9D9"/>
<path d="M82.8411 161.876C80.4961 160.703 73.3441 159.062 63.4955 161.876C45.9086 165.393 17.0661 176.016 42.3912 190.367C74.0476 208.305 160.223 222.375 155.299 235.037C151.36 245.167 81.1996 249.107 46.6121 249.81" stroke="#6A6A6A" stroke-width="7.24075"/>
<path d="M84.2473 158.359C81.9024 157.186 74.7504 155.545 64.9017 158.359C47.3149 161.876 18.4724 172.498 43.7975 186.849C75.4539 204.788 161.63 218.857 156.705 231.52C152.766 241.65 82.6059 245.589 48.0183 246.293" stroke="#A8D9DE" stroke-width="7.24075"/>
<path d="M111.562 127.259L109.803 132.183L165.73 153.639L194.924 158.388L222.711 168.764L170.302 184.24L54.5805 142.032L111.562 127.259Z" fill="#D9D9D9"/>
<path d="M62.4754 86.7477C62.8463 76.0769 70.6607 67.1338 81.1854 65.3353C83.5771 64.9266 86.0192 64.9071 88.4171 65.2777L99.6915 67.0201L103.586 121.822L68.8353 143.506L60.6016 140.658L62.4754 86.7477Z" fill="#ABABAB" stroke="black" stroke-width="1.44815"/>
<path d="M69.3647 91.9682C69.3647 80.3434 77.0802 70.1308 88.2625 66.954C103.064 62.7491 117.779 73.8664 117.779 89.2534V129.591L69.3647 143.345V91.9682Z" fill="#86D8E2" stroke="black" stroke-width="1.44815"/>
<path d="M115.825 98.3711C114.842 112.898 104.383 123.771 92.7214 122.982C81.0594 122.193 72.1596 110.011 73.142 95.4845C74.1244 80.9581 84.5835 70.0851 96.2455 70.8738C107.907 71.6624 116.807 83.8447 115.825 98.3711Z" fill="#D9D9D9" stroke="black" stroke-width="1.44815"/>
<path opacity="0.9" d="M86.7987 121.194L100.597 71.882L204.933 111.192L194.878 161.741L86.7987 121.194Z" fill="#9CD9E0" stroke="black" stroke-width="1.44815"/>
<path d="M114.472 98.273C113.489 112.818 103.316 123.685 92.0458 122.923C80.7758 122.161 72.1588 110.023 73.1425 95.4779C74.1262 80.9326 84.2989 70.0658 95.5689 70.828C106.839 71.5902 115.456 83.7276 114.472 98.273Z" fill="#9CD9E0" stroke="black" stroke-width="1.44815"/>
<path d="M93.3711 94.9527L115.68 93.2982L168.94 113.466L184.358 131.194L160.94 134.663L105.973 114.064L93.3711 94.9527Z" fill="#F2F2F2"/>
<path d="M93.3711 94.9527L115.68 93.2982M93.3711 94.9527L105.973 114.064M93.3711 94.9527L114.082 103.85M115.68 93.2982L168.94 113.466M115.68 93.2982L114.082 103.85M168.94 113.466L184.358 131.194M168.94 113.466L158.936 121.137M184.358 131.194L160.94 134.663M184.358 131.194L158.936 121.137M160.94 134.663L105.973 114.064M160.94 134.663L158.936 121.137M105.973 114.064L114.082 103.85M114.082 103.85L158.936 121.137" stroke="black" stroke-width="1.44815"/>
<path d="M93.3711 94.9527L115.68 93.2982L168.94 113.466L184.358 131.194L160.94 134.663L105.973 114.064L93.3711 94.9527Z" fill="white" fill-opacity="0.65"/>
<path d="M93.3711 94.9527L115.68 93.2982M93.3711 94.9527L105.973 114.064M93.3711 94.9527L114.082 103.85M115.68 93.2982L168.94 113.466M115.68 93.2982L114.082 103.85M168.94 113.466L184.358 131.194M168.94 113.466L158.936 121.137M184.358 131.194L160.94 134.663M184.358 131.194L158.936 121.137M160.94 134.663L105.973 114.064M160.94 134.663L158.936 121.137M105.973 114.064L114.082 103.85M114.082 103.85L158.936 121.137" stroke="black" stroke-width="1.44815"/>
<g opacity="0.8" filter="url(#filter0_f_99_4720)">
<path d="M93.3711 94.9527L115.68 93.2982L168.94 113.466L184.358 131.194L160.94 134.663L105.973 114.064L93.3711 94.9527Z" fill="#F2F2F2"/>
<path d="M93.3711 94.9527L115.68 93.2982M93.3711 94.9527L105.973 114.064M93.3711 94.9527L114.082 103.85M115.68 93.2982L168.94 113.466M115.68 93.2982L114.082 103.85M168.94 113.466L184.358 131.194M168.94 113.466L158.936 121.137M184.358 131.194L160.94 134.663M184.358 131.194L158.936 121.137M160.94 134.663L105.973 114.064M160.94 134.663L158.936 121.137M105.973 114.064L114.082 103.85M114.082 103.85L158.936 121.137" stroke="black" stroke-width="1.44815"/>
</g>
<path opacity="0.7" d="M127.453 131.116L86.6602 110.606C86.6602 110.606 86.9949 112.657 87.5717 114.708C88.1486 116.759 89.8506 118.81 89.8506 118.81L127.453 133.167V131.116Z" fill="white" fill-opacity="0.63"/>
<path opacity="0.6" d="M120.16 81.8913L104.892 76.4219C104.892 76.4219 102.582 75.6774 101.245 75.5104C99.4221 75.2824 97.3711 75.5103 97.3711 75.5103L117.881 82.8029L120.16 81.8913Z" fill="white" fill-opacity="0.63"/>
<path d="M162.779 124.158C163.169 113.486 170.99 104.551 181.517 102.752C183.912 102.343 186.358 102.324 188.76 102.695L200.029 104.436L203.923 159.238L169.208 180.9L160.843 177.099L162.779 124.158Z" fill="#ABABAB" stroke="black" stroke-width="1.44815"/>
<path d="M169.705 130.267C169.705 118.12 177.766 107.449 189.451 104.129C203.827 100.045 218.119 110.843 218.119 125.787V167.007L169.705 180.761V130.267Z" fill="#86D8E2" stroke="black" stroke-width="1.44815"/>
<path d="M215.992 135.666C215.014 150.132 204.599 160.959 192.986 160.174C181.374 159.389 172.511 147.258 173.489 132.792C174.468 118.326 184.883 107.499 196.495 108.284C208.108 109.069 216.971 121.2 215.992 135.666Z" fill="#A8D9DE" stroke="black" stroke-width="1.44815"/>
<path d="M214.422 135.56C213.442 150.053 203.358 160.875 192.201 160.121C181.044 159.366 172.509 147.284 173.489 132.792C174.469 118.299 184.553 107.476 195.71 108.231C206.867 108.985 215.402 121.067 214.422 135.56Z" fill="#8F8F8F" stroke="black" stroke-width="1.44815"/>
<path d="M196.913 121.747L196.936 121.754L196.96 121.76C197.17 121.806 197.82 121.973 198.436 122.132C198.74 122.211 199.03 122.286 199.244 122.342L199.329 122.364C199.357 122.407 199.388 122.455 199.422 122.509C199.577 122.752 199.797 123.108 200.057 123.556C200.576 124.454 201.247 125.716 201.859 127.174C203.098 130.128 204.023 133.728 203.135 136.731C202.313 139.513 200.17 142.062 198.161 143.95C197.165 144.885 196.222 145.64 195.528 146.16C195.182 146.421 194.899 146.622 194.703 146.757C194.68 146.773 194.658 146.788 194.638 146.802C194.53 146.783 194.396 146.759 194.241 146.731C193.824 146.656 193.261 146.554 192.669 146.443C191.463 146.218 190.212 145.971 189.812 145.853C184.534 144.293 181.588 137.719 183.587 130.955C185.589 124.182 191.641 120.19 196.913 121.747Z" fill="#6A6A6A" stroke="black" stroke-width="1.44815"/>
<path d="M206.59 137.451C204.591 144.215 198.545 148.132 193.267 146.572C187.988 145.012 185.043 138.439 187.042 131.674C189.041 124.909 195.086 120.992 200.365 122.552C205.643 124.112 208.589 130.686 206.59 137.451Z" fill="#8F8F8F" stroke="black" stroke-width="1.44815"/>
<path d="M200.143 135.462C199.598 137.308 198.015 138.209 196.79 137.847C195.564 137.485 194.725 135.869 195.271 134.022C195.817 132.175 197.399 131.275 198.625 131.637C199.851 131.999 200.689 133.615 200.143 135.462Z" fill="#A8D9DE" stroke="black" stroke-width="1.44815"/>
<path d="M199.053 135.139C198.778 136.068 198.282 136.801 197.737 137.247C197.189 137.696 196.66 137.809 196.244 137.686C195.828 137.563 195.445 137.181 195.229 136.506C195.015 135.836 194.997 134.95 195.271 134.022C195.545 133.094 196.042 132.36 196.586 131.914C197.134 131.466 197.663 131.353 198.079 131.476C198.495 131.599 198.878 131.981 199.094 132.655C199.309 133.326 199.327 134.211 199.053 135.139Z" fill="#F2F2F2" stroke="black" stroke-width="1.44815"/>
<path d="M139.352 146.956L95.7362 130.073L84.1289 131.48L103.474 166.653L127.041 187.054L143.652 179.318C146.721 177.888 146.522 172.585 144.071 170.248C142 168.274 140.307 165.605 140.055 162.081C139.615 155.915 139.352 146.956 139.352 146.956Z" fill="#A8D9DE"/>
<path d="M139.352 146.956L95.7362 130.073L84.1289 131.48L103.474 166.653L127.041 187.054L143.652 179.318C146.721 177.888 146.522 172.585 144.071 170.248C142 168.274 140.307 165.605 140.055 162.081C139.615 155.915 139.352 146.956 139.352 146.956ZM139.352 146.956L128.448 148.363" stroke="black" stroke-width="1.44815"/>
<path d="M128.798 148.363L83.7752 131.48C83.7752 131.48 80.2578 139.218 80.2578 150.474C80.2578 161.729 83.7752 168.764 83.7752 168.764L127.039 187.054C127.039 187.054 124.225 178.261 124.225 167.005C124.225 155.75 128.798 148.363 128.798 148.363Z" fill="#A8D9DE" stroke="black" stroke-width="1.44815"/>
<path d="M121.06 151.952L88.2826 139.921C88.2826 139.921 85.8867 145.113 85.8867 152.664C85.8867 160.215 88.2826 164.935 88.2826 164.935L119.863 177.909C119.863 177.909 117.946 172.01 117.946 164.458C117.946 156.907 121.06 151.952 121.06 151.952Z" fill="#A8D9DE" stroke="black" stroke-width="1.44815"/>
<path d="M121.06 151.951L89.3373 140.193C89.3373 140.193 86.9414 145.384 86.9414 152.936C86.9414 160.487 89.0518 164.458 89.0518 164.458L119.301 176.854C119.301 176.854 117.945 172.009 117.945 164.458C117.945 156.907 121.06 151.951 121.06 151.951Z" fill="#F2F2F2" stroke="black" stroke-width="1.44815"/>
<path d="M135.487 167.877C134.942 169.724 133.359 170.624 132.133 170.262C130.908 169.9 130.069 168.284 130.615 166.437C131.16 164.591 132.743 163.69 133.968 164.052C135.194 164.414 136.033 166.03 135.487 167.877Z" fill="#A8D9DE" stroke="black" stroke-width="1.44815"/>
<path d="M134.52 167.591C134.247 168.516 133.746 169.246 133.193 169.689C132.637 170.133 132.09 170.249 131.65 170.119C131.209 169.989 130.813 169.594 130.589 168.919C130.365 168.247 130.341 167.362 130.615 166.437C130.888 165.512 131.389 164.782 131.942 164.34C132.497 163.895 133.044 163.779 133.485 163.909C133.925 164.039 134.321 164.434 134.546 165.109C134.769 165.781 134.793 166.666 134.52 167.591Z" fill="#F2F2F2" stroke="black" stroke-width="1.44815"/>
<path d="M93.915 154.295C94.0991 156.212 92.9681 157.638 91.6958 157.761C90.4234 157.883 89.0415 156.697 88.8574 154.781C88.6733 152.864 89.8042 151.437 91.0766 151.315C92.349 151.193 93.7309 152.378 93.915 154.295Z" fill="#A8D9DE" stroke="black" stroke-width="1.44815"/>
<path d="M93.2119 154.295C93.396 156.212 92.265 157.638 90.9927 157.761C89.7203 157.883 88.3384 156.697 88.1543 154.781C87.9701 152.864 89.1011 151.437 90.3735 151.315C91.6458 151.193 93.0277 152.378 93.2119 154.295Z" fill="#ABABAB" stroke="black" stroke-width="1.44815"/>
<path d="M114.556 162.928C114.74 164.845 113.609 166.272 112.336 166.394C111.064 166.516 109.682 165.331 109.498 163.414C109.314 161.497 110.445 160.07 111.717 159.948C112.99 159.826 114.371 161.011 114.556 162.928Z" fill="#A8D9DE" stroke="black" stroke-width="1.44815"/>
<path d="M113.852 162.928C114.037 164.845 112.906 166.272 111.633 166.394C110.361 166.516 108.979 165.331 108.795 163.414C108.611 161.497 109.742 160.07 111.014 159.948C112.286 159.826 113.668 161.011 113.852 162.928Z" fill="#ABABAB" stroke="black" stroke-width="1.44815"/>
<path d="M97.8438 156.453L104.879 159.267L103.472 156.453" stroke="black" stroke-width="1.44815"/>
<path d="M104.879 161.026L97.8442 158.212L99.2511 161.026" stroke="black" stroke-width="1.44815"/>
<path d="M140.792 109.187C140.945 109.557 141.369 109.732 141.738 109.579L147.757 107.081C148.127 106.928 148.302 106.504 148.149 106.135C147.995 105.765 147.572 105.59 147.202 105.743L141.852 107.964L139.632 102.613C139.479 102.244 139.055 102.069 138.686 102.222C138.316 102.375 138.141 102.799 138.294 103.168L140.792 109.187ZM188.35 97.4462C183.059 93.1066 174.314 88.4087 165.289 88.5502C160.757 88.6212 156.158 89.9136 151.92 93.0762C147.686 96.2349 143.854 101.227 140.792 108.633L142.13 109.187C145.118 101.96 148.81 97.2037 152.786 94.2369C156.756 91.2742 161.052 90.0649 165.311 89.9981C173.867 89.864 182.287 94.3465 187.431 98.5659L188.35 97.4462Z" fill="black"/>
<path d="M104.21 97.2284C104.363 97.5977 104.787 97.7729 105.156 97.6196L111.175 95.1219C111.545 94.9687 111.72 94.545 111.567 94.1756C111.413 93.8063 110.99 93.6311 110.62 93.7844L105.27 96.0046L103.05 90.6543C102.897 90.285 102.473 90.1098 102.104 90.2631C101.734 90.4163 101.559 90.84 101.712 91.2094L104.21 97.2284ZM151.767 85.4871C146.477 81.1476 137.732 76.4497 128.707 76.5911C124.175 76.6621 119.576 77.9545 115.338 81.1172C111.104 84.2758 107.272 89.2683 104.21 96.6742L105.548 97.2275C108.536 90.0011 112.228 85.2446 116.204 82.2779C120.174 79.3152 124.47 78.1058 128.729 78.0391C137.285 77.905 145.705 82.3874 150.849 86.6068L151.767 85.4871Z" fill="black"/>
<path d="M173.82 87.1608C176.986 87.8642 179.8 88.5677 183.317 91.3816" stroke="black" stroke-width="1.44815"/>
<path d="M125.984 74.9845C129.197 74.544 132.08 74.2258 136.356 75.642" stroke="black" stroke-width="1.44815"/>
<ellipse cx="25.4142" cy="7.78619" rx="25.4142" ry="7.78619" transform="matrix(1.01923 -0.0157399 0.058173 0.976682 138.465 196.954)" fill="#6A6A6A"/>
<ellipse cx="25.4239" cy="8.86982" rx="25.4239" ry="8.86982" transform="matrix(1.01923 -0.01574 0.058173 0.976682 144.316 193.504)" fill="#A8D9DE"/>
<path d="M196.563 201.218L196.161 192.996L191.809 195.503L192.837 200.659L196.563 201.218Z" fill="#A8D9DE"/>
<path d="M144.847 201.896L144.331 193.406L148.997 196.164L148.585 201.342L144.847 201.896Z" fill="#A8D9DE"/>
<path fill-rule="evenodd" clip-rule="evenodd" d="M150.338 207.219C150.087 207.11 149.839 206.998 149.593 206.882L148.526 197.392L149.224 197.312L150.338 207.219ZM153.811 208.454C153.566 208.383 153.322 208.31 153.08 208.233L151.949 198.177L152.647 198.097L153.811 208.454ZM157.637 209.353C157.396 209.308 157.155 209.261 156.914 209.212L155.771 199.044L156.469 198.963L157.637 209.353ZM160.992 209.868C160.754 209.838 160.515 209.807 160.275 209.775L159.136 199.641L159.833 199.561L160.992 209.868ZM164.291 210.201C164.055 210.182 163.817 210.162 163.577 210.141L162.443 200.051L163.141 199.97L164.291 210.201ZM168.326 210.471C168.093 210.457 167.856 210.444 167.614 210.429L166.491 200.436L167.188 200.355L168.326 210.471ZM173.134 210.415C172.902 210.426 172.668 210.435 172.431 210.444L171.277 200.18L171.974 200.099L173.134 210.415ZM177.947 210.064C177.716 210.088 177.483 210.112 177.248 210.134L176.121 200.111L176.818 200.031L177.947 210.064ZM181.783 209.548C181.555 209.587 181.324 209.624 181.089 209.66L179.995 199.933L180.693 199.853L181.783 209.548ZM185.553 208.767C185.328 208.824 185.099 208.879 184.865 208.934L183.812 199.567L184.51 199.487L185.553 208.767ZM188.461 207.909C188.239 207.985 188.012 208.06 187.78 208.134L186.715 198.664L187.412 198.583L188.461 207.909ZM191.16 206.823C190.943 206.925 190.719 207.026 190.487 207.126L189.447 197.813L190.144 197.733L191.16 206.823ZM193.751 205.369C193.543 205.509 193.323 205.65 193.091 205.791L192.063 196.588L192.761 196.508L193.751 205.369ZM147.169 205.547L146.128 196.288L146.826 196.208L147.928 206.01C147.671 205.861 147.418 205.706 147.169 205.547ZM195.629 203.858C195.435 204.046 195.222 204.241 194.987 204.439L193.996 195.575L194.694 195.494L195.629 203.858Z" fill="#6A6A6A"/>
<ellipse cx="25.4142" cy="7.78619" rx="25.4142" ry="7.78619" transform="matrix(1.01923 -0.01574 0.058173 0.976682 143.895 186.093)" fill="#6A6A6A"/>
<ellipse cx="19.4925" cy="4.54236" rx="19.4925" ry="4.54236" transform="matrix(1.01923 -0.01574 0.058173 0.976682 149.754 190.577)" fill="#F2F2F2"/>
<path fill-rule="evenodd" clip-rule="evenodd" d="M192.865 194.597C192.949 194.343 192.984 194.086 192.969 193.826C192.75 190.152 182.425 187.329 169.907 187.522C157.39 187.716 147.42 190.852 147.639 194.526C147.654 194.786 147.72 195.042 147.833 195.292C148.933 191.959 158.366 189.238 169.999 189.058C181.632 188.879 191.371 191.304 192.865 194.597Z" fill="#A8D9DE"/>
<path fill-rule="evenodd" clip-rule="evenodd" d="M192.979 194.164C192.989 194.221 192.996 194.278 192.999 194.335C193.184 197.441 183.187 200.116 170.669 200.31C158.151 200.503 147.854 198.141 147.669 195.035C147.666 194.978 147.666 194.922 147.669 194.866C148.213 197.888 158.361 200.16 170.649 199.97C182.938 199.78 192.799 197.198 192.979 194.164Z" fill="#A8D9DE"/>
<ellipse cx="25.4142" cy="7.78619" rx="25.4142" ry="7.78619" transform="matrix(1.01928 0.0116943 0.0318684 0.977893 146.266 200.77)" fill="#6A6A6A"/>
<ellipse cx="25.4238" cy="8.86982" rx="25.4238" ry="8.86982" transform="matrix(1.01929 0.0116943 0.0318684 0.977893 151.918 199.138)" fill="#A8D9DE"/>
<path d="M203.936 208.256L203.755 200.025L199.337 202.414L200.226 207.596L203.936 208.256Z" fill="#A8D9DE"/>
<path d="M152.22 207.541L151.932 199.041L156.522 201.923L155.971 207.089L152.22 207.541Z" fill="#A8D9DE"/>
<path fill-rule="evenodd" clip-rule="evenodd" d="M157.567 213.01C157.32 212.895 157.075 212.776 156.832 212.654L156.021 203.138L156.72 203.077L157.567 213.01ZM161.006 214.339C160.763 214.261 160.521 214.181 160.281 214.098L159.421 204.015L160.121 203.953L161.006 214.339ZM164.806 215.339C164.566 215.288 164.327 215.235 164.087 215.179L163.218 204.984L163.918 204.922L164.806 215.339ZM168.146 215.945C167.909 215.909 167.671 215.871 167.432 215.832L166.566 205.672L167.265 205.61L168.146 215.945ZM171.435 216.367C171.2 216.342 170.962 216.315 170.723 216.287L169.861 206.171L170.56 206.109L171.435 216.367ZM175.461 216.745C175.229 216.725 174.992 216.705 174.751 216.684L173.897 206.664L174.596 206.602L175.461 216.745ZM180.269 216.819C180.037 216.823 179.802 216.826 179.565 216.829L178.688 206.537L179.388 206.475L180.269 216.819ZM185.089 216.598C184.858 216.615 184.625 216.632 184.389 216.648L183.532 206.599L184.231 206.537L185.089 216.598ZM188.938 216.185C188.709 216.217 188.477 216.248 188.241 216.278L187.41 206.525L188.109 206.463L188.938 216.185ZM192.728 215.505C192.501 215.556 192.271 215.605 192.036 215.654L191.235 206.262L191.935 206.201L192.728 215.505ZM195.658 214.725C195.434 214.796 195.205 214.865 194.971 214.933L194.161 205.437L194.861 205.375L195.658 214.725ZM198.385 213.713C198.166 213.809 197.939 213.904 197.704 213.998L196.915 204.66L197.614 204.599L198.385 213.713ZM201.014 212.329C200.802 212.464 200.579 212.599 200.344 212.733L199.563 203.506L200.263 203.444L201.014 212.329ZM154.445 211.253L153.653 201.97L154.353 201.908L155.191 211.737C154.938 211.581 154.689 211.42 154.445 211.253ZM202.932 210.869C202.733 211.052 202.515 211.241 202.275 211.432L201.523 202.545L202.223 202.484L202.932 210.869Z" fill="#6A6A6A"/>
<ellipse cx="25.4142" cy="7.78619" rx="25.4142" ry="7.78619" transform="matrix(1.01928 0.0116943 0.0318684 0.977893 151.695 191.719)" fill="#6A6A6A"/>
<ellipse cx="19.4925" cy="4.54236" rx="19.4925" ry="4.54236" transform="matrix(1.01929 0.0116943 0.0318684 0.977893 157.434 196.358)" fill="#F2F2F2"/>
<path fill-rule="evenodd" clip-rule="evenodd" d="M200.418 201.537C200.508 201.286 200.55 201.03 200.542 200.77C200.422 197.09 190.177 193.991 177.659 193.848C165.14 193.704 155.089 196.57 155.209 200.25C155.218 200.51 155.277 200.767 155.384 201.02C156.572 197.718 166.075 195.252 177.709 195.385C189.342 195.519 199.013 198.205 200.418 201.537Z" fill="#A8D9DE"/>
<path fill-rule="evenodd" clip-rule="evenodd" d="M200.543 201.108C200.552 201.164 200.557 201.222 200.559 201.279C200.661 204.389 190.595 206.794 178.076 206.651C165.558 206.507 155.328 203.869 155.227 200.759C155.225 200.702 155.226 200.646 155.231 200.59C155.694 203.625 165.777 206.17 178.065 206.311C190.356 206.452 200.283 204.136 200.543 201.108Z" fill="#A8D9DE"/>
<ellipse opacity="0.4" cx="25.4142" cy="7.78619" rx="25.4142" ry="7.78619" transform="matrix(1.01557 0.0876862 -0.0411577 0.977546 152.223 206.901)" fill="#6A6A6A"/>
<ellipse cx="25.4238" cy="8.86982" rx="25.4238" ry="8.86982" transform="matrix(0.937636 0.399897 -0.343833 0.916008 161.176 190.096)" fill="#A8D9DE"/>
<path d="M205.776 218.38L208.75 210.704L203.755 211.225L202.598 216.354L205.776 218.38Z" fill="#A8D9DE"/>
<path d="M158.247 197.979L161.226 190.012L164.368 194.428L161.887 198.992L158.247 197.979Z" fill="#A8D9DE"/>
<path fill-rule="evenodd" clip-rule="evenodd" d="M161.098 205.073C160.913 204.873 160.732 204.669 160.554 204.463L163.437 195.359L164.107 195.569L161.098 205.073ZM163.769 207.614C163.574 207.45 163.381 207.283 163.191 207.115L166.245 197.467L166.915 197.677L163.769 207.614ZM166.899 209.99C166.698 209.851 166.497 209.71 166.296 209.567L169.385 199.812L170.055 200.022L166.899 209.99ZM169.756 211.824C169.55 211.7 169.344 211.575 169.139 211.448L172.216 201.726L172.886 201.936L169.756 211.824ZM172.634 213.47C172.426 213.357 172.217 213.241 172.007 213.124L175.071 203.445L175.742 203.655L172.634 213.47ZM176.211 215.356C176.004 215.249 175.793 215.14 175.578 215.029L178.613 205.442L179.284 205.652L176.211 215.356ZM180.627 217.26C180.411 217.175 180.193 217.088 179.973 217L183.09 207.153L183.76 207.363L180.627 217.26ZM185.166 218.895C184.946 218.824 184.724 218.75 184.5 218.675L187.544 209.059L188.214 209.269L185.166 218.895ZM188.881 219.983C188.658 219.925 188.431 219.865 188.202 219.803L191.156 210.471L191.826 210.681L188.881 219.983ZM192.644 220.802C192.415 220.762 192.183 220.72 191.947 220.675L194.792 211.689L195.462 211.899L192.644 220.802ZM195.649 221.199C195.416 221.179 195.178 221.155 194.935 221.129L197.812 212.043L198.482 212.253L195.649 221.199ZM198.557 221.304C198.317 221.309 198.071 221.311 197.819 221.308L200.653 212.376L201.323 212.587L198.557 221.304ZM201.515 221.029C201.268 221.072 201.01 221.112 200.741 221.147L203.542 212.32L204.212 212.53L201.515 221.029ZM158.882 202.258L161.695 193.375L162.365 193.585L159.387 202.989C159.213 202.749 159.045 202.505 158.882 202.258ZM203.845 220.411C203.591 220.505 203.317 220.596 203.022 220.681L205.72 212.18L206.39 212.39L203.845 220.411Z" fill="#6A6A6A"/>
<ellipse cx="25.4142" cy="7.78619" rx="25.4142" ry="7.78619" transform="matrix(0.937636 0.399897 -0.343833 0.916008 163.801 183.154)" fill="#6A6A6A"/>
<ellipse cx="19.4925" cy="4.54236" rx="19.4925" ry="4.54236" transform="matrix(0.937636 0.399897 -0.343833 0.916008 167.332 189.632)" fill="#F2F2F2"/>
<path fill-rule="evenodd" clip-rule="evenodd" d="M205.088 210.827C205.267 210.63 205.404 210.409 205.496 210.166C206.789 206.719 198.503 199.944 186.987 195.032C175.472 190.121 165.088 188.934 163.794 192.38C163.703 192.624 163.659 192.884 163.661 193.159C166.021 190.56 175.745 191.908 186.447 196.472C197.148 201.037 205.061 207.211 205.088 210.827Z" fill="#A8D9DE"/>
<path fill-rule="evenodd" clip-rule="evenodd" d="M205.365 210.478C205.351 210.534 205.334 210.589 205.314 210.642C204.221 213.556 193.999 211.937 182.483 207.025C170.968 202.114 162.519 195.771 163.613 192.857C163.633 192.804 163.656 192.752 163.682 192.702C162.951 195.685 171.299 201.885 182.603 206.706C193.909 211.528 203.968 213.177 205.365 210.478Z" fill="#A8D9DE"/>
<ellipse cx="25.4238" cy="8.86982" rx="25.4238" ry="8.86982" transform="matrix(0.937636 0.399897 -0.343833 0.916008 154.875 62.2624)" fill="#A8D9DE"/>
<path d="M199.475 90.5467L202.45 82.8705L197.454 83.392L196.297 88.5206L199.475 90.5467Z" fill="#A8D9DE"/>
<path d="M151.946 70.1455L154.925 62.1789L158.067 66.5951L155.586 71.159L151.946 70.1455Z" fill="#A8D9DE"/>
<path fill-rule="evenodd" clip-rule="evenodd" d="M154.797 77.2399C154.612 77.0392 154.431 76.836 154.254 76.6301L157.136 67.5254L157.806 67.7354L154.797 77.2399ZM157.468 79.7807C157.274 79.6164 157.081 79.4499 156.89 79.2813L159.944 69.6339L160.614 69.8439L157.468 79.7807ZM160.599 82.1563C160.397 82.0174 160.196 81.8767 159.996 81.7341L163.084 71.979L163.754 72.189L160.599 82.1563ZM163.455 83.9908C163.25 83.8671 163.044 83.7416 162.838 83.6144L165.916 73.8926L166.586 74.1026L163.455 83.9908ZM166.333 85.6366C166.126 85.5232 165.916 85.408 165.706 85.291L168.771 75.6112L169.441 75.8212L166.333 85.6366ZM169.91 87.523C169.703 87.4159 169.492 87.3068 169.277 87.1956L172.313 77.6082L172.983 77.8182L169.91 87.523ZM174.326 89.4266C174.11 89.3417 173.892 89.255 173.672 89.1668L176.79 79.3195L177.46 79.5295L174.326 89.4266ZM178.866 91.0618C178.646 90.9902 178.423 90.9167 178.199 90.8412L181.243 81.2257L181.913 81.4357L178.866 91.0618ZM182.581 92.1499C182.357 92.0921 182.13 92.0321 181.901 91.9699L184.856 82.6379L185.526 82.8479L182.581 92.1499ZM186.343 92.9682C186.114 92.9286 185.882 92.8863 185.646 92.8413L188.491 83.8552L189.162 84.0652L186.343 92.9682ZM189.349 93.3658C189.115 93.3453 188.877 93.3218 188.634 93.2951L191.511 84.2095L192.181 84.4195L189.349 93.3658ZM192.256 93.471C192.016 93.4759 191.771 93.4772 191.518 93.4747L194.353 84.5427L195.023 84.7531L192.256 93.471ZM195.214 93.1953C194.967 93.239 194.709 93.2785 194.44 93.3133L197.241 84.4863L197.911 84.6968L195.214 93.1953ZM152.582 74.4242L155.394 65.542L156.064 65.7519L153.087 75.1559C152.913 74.9154 152.744 74.6715 152.582 74.4242ZM197.544 92.5779C197.29 92.6717 197.016 92.7625 196.722 92.848L199.42 84.3466L200.09 84.557L197.544 92.5779Z" fill="#6A6A6A"/>
<ellipse cx="25.4142" cy="7.78619" rx="25.4142" ry="7.78619" transform="matrix(0.937636 0.399897 -0.343833 0.916008 157.5 55.3204)" fill="#6A6A6A"/>
<ellipse cx="19.4925" cy="4.54236" rx="19.4925" ry="4.54236" transform="matrix(0.937636 0.399897 -0.343833 0.916008 161.031 61.7985)" fill="#F2F2F2"/>
<path fill-rule="evenodd" clip-rule="evenodd" d="M198.787 82.9939C198.966 82.7963 199.103 82.5758 199.195 82.3322C200.488 78.8856 192.202 72.1101 180.687 67.1988C169.171 62.2875 158.787 61.1002 157.493 64.5468C157.402 64.7904 157.358 65.0505 157.36 65.3254C159.72 62.7269 169.444 64.0749 180.146 68.6391C190.848 73.2034 198.761 79.3777 198.787 82.9939Z" fill="#A8D9DE"/>
<path fill-rule="evenodd" clip-rule="evenodd" d="M199.064 82.6449C199.051 82.7008 199.034 82.7555 199.014 82.809C197.92 85.7226 187.698 84.1031 176.183 79.1918C164.667 74.2805 156.219 67.9372 157.312 65.0236C157.332 64.9705 157.355 64.919 157.381 64.869C156.649 67.8511 164.998 74.0521 176.302 78.8732C187.608 83.6951 197.667 85.3439 199.064 82.6449Z" fill="#A8D9DE"/>
<path d="M174.391 62.2925L177.793 64.5389" stroke="black" stroke-width="0.938262" stroke-linecap="round"/>
<path d="M176.668 66.3946L178.501 67.3062" stroke="black" stroke-width="0.938262" stroke-linecap="round"/>
<path d="M174.254 68.6735L176.087 69.5851" stroke="black" stroke-width="0.938262" stroke-linecap="round"/>
<path d="M219.748 62.9454C219.595 63.9943 220.694 65.0224 222.202 65.2418C223.709 65.4612 225.055 64.7887 225.208 63.7398C225.361 62.6909 224.262 61.6628 222.754 61.4434C221.246 61.224 219.9 61.8965 219.748 62.9454Z" fill="#D9D9D9"/>
<path d="M201.795 64.6972C201.642 65.746 202.741 66.7742 204.249 66.9936C205.756 67.2129 207.102 66.5405 207.255 65.4916C207.408 64.4427 206.309 63.4146 204.801 63.1952C203.293 62.9758 201.947 63.6483 201.795 64.6972Z" fill="#A8D9DE"/>
<path d="M224.662 77.4789C224.509 78.5278 225.608 79.5559 227.116 79.7753C228.623 79.9947 229.969 79.3222 230.122 78.2733C230.275 77.2244 229.176 76.1963 227.668 75.9769C226.161 75.7575 224.815 76.43 224.662 77.4789Z" fill="#F2F2F2"/>
<path d="M232.463 83.432C232.456 84.3949 232.993 85.1796 233.663 85.1847C234.333 85.1897 234.882 84.4133 234.889 83.4503C234.896 82.4874 234.359 81.7027 233.689 81.6976C233.02 81.6926 232.471 82.4691 232.463 83.432Z" fill="#D9D9D9"/>
<path d="M235.108 94.5202C235.101 95.4832 235.638 96.2679 236.308 96.2729C236.977 96.278 237.526 95.5015 237.534 94.5386C237.541 93.5757 237.004 92.7909 236.334 92.7859C235.664 92.7808 235.115 93.5573 235.108 94.5202Z" fill="#A8D9DE"/>
<path d="M214.538 75.0057C214.53 75.9686 215.067 76.7533 215.737 76.7584C216.407 76.7634 216.956 75.9869 216.963 75.024C216.971 74.0611 216.434 73.2764 215.764 73.2713C215.094 73.2662 214.545 74.0427 214.538 75.0057Z" fill="#D9D9D9"/>
<path d="M223.213 70.6742C223.206 71.6372 223.743 72.4219 224.413 72.4269C225.083 72.432 225.632 71.6555 225.639 70.6926C225.646 69.7296 225.109 68.9449 224.439 68.9399C223.77 68.9348 223.221 69.7113 223.213 70.6742Z" fill="#F2F2F2"/>
<path d="M211.135 62.6687C211.128 63.6317 211.665 64.4164 212.335 64.4214C213.005 64.4265 213.554 63.65 213.561 62.6871C213.568 61.7242 213.031 60.9394 212.361 60.9344C211.691 60.9293 211.143 61.7058 211.135 62.6687Z" fill="#A8D9DE"/>
<path d="M29.2283 103.51C29.0757 104.559 30.1743 105.587 31.6821 105.807C33.1899 106.026 34.5359 105.354 34.6885 104.305C34.8411 103.256 33.7425 102.228 32.2347 102.008C30.7269 101.789 29.3809 102.461 29.2283 103.51Z" fill="#D9D9D9"/>
<path d="M11.2752 105.262C11.1226 106.311 12.2212 107.339 13.729 107.558C15.2368 107.778 16.5828 107.105 16.7354 106.056C16.888 105.008 15.7894 103.979 14.2816 103.76C12.7738 103.541 11.4278 104.213 11.2752 105.262Z" fill="#A8D9DE"/>
<path d="M34.1424 118.044C33.9898 119.093 35.0884 120.121 36.5962 120.34C38.104 120.559 39.45 119.887 39.6026 118.838C39.7552 117.789 38.6566 116.761 37.1488 116.542C35.641 116.322 34.295 116.995 34.1424 118.044Z" fill="#F2F2F2"/>
<path d="M41.9438 123.997C41.9365 124.96 42.4737 125.744 43.1435 125.75C43.8134 125.755 44.3623 124.978 44.3696 124.015C44.3769 123.052 43.8398 122.268 43.1699 122.262C42.5 122.257 41.9511 123.034 41.9438 123.997Z" fill="#D9D9D9"/>
<path d="M44.5884 135.085C44.5811 136.048 45.1182 136.833 45.7881 136.838C46.4579 136.843 47.0069 136.066 47.0142 135.103C47.0214 134.14 46.4843 133.356 45.8144 133.351C45.1446 133.346 44.5957 134.122 44.5884 135.085Z" fill="#A8D9DE"/>
<path d="M24.0181 115.57C24.0108 116.533 24.5479 117.318 25.2178 117.323C25.8876 117.328 26.4366 116.552 26.4438 115.589C26.4511 114.626 25.914 113.841 25.2441 113.836C24.5743 113.831 24.0253 114.607 24.0181 115.57Z" fill="#D9D9D9"/>
<path d="M32.6938 111.239C32.6866 112.202 33.2237 112.987 33.8936 112.992C34.5634 112.997 35.1123 112.22 35.1196 111.257C35.1269 110.294 34.5898 109.51 33.9199 109.505C33.2501 109.5 32.7011 110.276 32.6938 111.239Z" fill="#F2F2F2"/>
<path d="M20.6157 103.234C20.6084 104.196 21.1456 104.981 21.8154 104.986C22.4853 104.991 23.0342 104.215 23.0415 103.252C23.0488 102.289 22.5116 101.504 21.8418 101.499C21.1719 101.494 20.623 102.271 20.6157 103.234Z" fill="#A8D9DE"/>
<defs>
<filter id="filter0_f_99_4720" x="0.128479" y="0.60675" width="277.602" height="226.757" filterUnits="userSpaceOnUse" color-interpolation-filters="sRGB">
<feFlood flood-opacity="0" result="BackgroundImageFix"/>
<feBlend mode="normal" in="SourceGraphic" in2="BackgroundImageFix" result="shape"/>
<feGaussianBlur stdDeviation="45.9787" result="effect1_foregroundBlur_99_4720"/>
</filter>
</defs>
</svg>
