<svg width="260" height="217" viewBox="0 0 260 217" fill="none" xmlns="http://www.w3.org/2000/svg">
<path d="M248.215 37.7961L259.805 49.2084C260.069 49.4681 260.069 49.8706 259.805 50.1302L248.215 61.5426C247.806 61.9451 247.094 61.6594 247.094 61.0882V57.7255C247.094 57.5567 247.16 57.3879 247.291 57.2711L254.544 50.1302C254.808 49.8706 254.808 49.4681 254.544 49.2084L247.291 42.0676C247.173 41.9508 247.094 41.782 247.094 41.6132V38.2505C247.094 37.6793 247.806 37.3936 248.215 37.7961Z" fill="#18EAFF"/>
<path d="M247.289 37.7961L235.698 49.2084C235.434 49.4681 235.434 49.8706 235.698 50.1302L247.289 61.5426C247.711 61.9451 248.41 61.6594 248.41 61.0882V57.7255C248.41 57.5567 248.344 57.3879 248.212 57.2711L240.959 50.1302C240.695 49.8706 240.695 49.4681 240.959 49.2084L248.212 42.0676C248.33 41.9508 248.41 41.782 248.41 41.6132V38.2505C248.41 37.6793 247.697 37.3936 247.289 37.7961Z" fill="#18EAFF"/>
<g opacity="0.5">
<path d="M247.749 57.5762C247.597 57.5762 247.453 57.5163 247.347 57.4116L239.747 49.9311C239.527 49.7142 239.527 49.3551 239.747 49.1382L247.347 41.6577C247.506 41.5006 247.757 41.4483 247.97 41.538C248.183 41.6278 248.319 41.8298 248.319 42.0542V45.0464C248.319 45.196 248.259 45.3381 248.152 45.4428L243.995 49.5347L248.152 53.6265C248.259 53.7312 248.319 53.8733 248.319 54.023V57.0151C248.319 57.2396 248.183 57.449 247.97 57.5313C247.894 57.5612 247.825 57.5762 247.749 57.5762ZM240.956 49.5347L247.179 55.6612V54.2548L242.787 49.9311C242.567 49.7142 242.567 49.3551 242.787 49.1382L247.179 44.8145V43.4082L240.956 49.5347Z" fill="#18EAFF"/>
<path d="M247.75 57.5762C247.674 57.5762 247.605 57.5612 247.529 57.5313C247.316 57.4415 247.18 57.2396 247.18 57.0151V54.023C247.18 53.8733 247.24 53.7312 247.347 53.6265L251.504 49.5347L247.347 45.4428C247.24 45.3381 247.18 45.196 247.18 45.0464V42.0542C247.18 41.8298 247.316 41.6203 247.529 41.538C247.742 41.4483 247.985 41.5006 248.152 41.6577L255.752 49.1382C255.972 49.3551 255.972 49.7142 255.752 49.9311L248.152 57.4116C248.046 57.5163 247.902 57.5762 247.75 57.5762ZM248.32 54.2548V55.6612L254.543 49.5347L248.32 43.4082V44.8145L252.712 49.1382C252.932 49.3551 252.932 49.7142 252.712 49.9311L248.32 54.2548Z" fill="#18EAFF"/>
</g>
<path d="M12.7146 171.812L24.3054 183.224C24.5692 183.484 24.5692 183.887 24.3054 184.146L12.7146 195.559C12.3058 195.961 11.5938 195.675 11.5938 195.104V191.741C11.5938 191.573 11.6596 191.404 11.7915 191.287L19.044 184.146C19.3078 183.887 19.3078 183.484 19.044 183.224L11.7915 176.084C11.6728 175.967 11.5938 175.798 11.5938 175.629V172.266C11.5938 171.695 12.3058 171.41 12.7146 171.812Z" fill="#18EAFF"/>
<path d="M11.7887 171.812L0.197797 183.224C-0.0659323 183.484 -0.0659323 183.887 0.197797 184.146L11.7887 195.559C12.2106 195.961 12.9096 195.675 12.9096 195.104V191.741C12.9096 191.573 12.8436 191.404 12.7117 191.287L5.45918 184.146C5.19545 183.887 5.19545 183.484 5.45918 183.224L12.7117 176.084C12.8304 175.967 12.9096 175.798 12.9096 175.629V172.266C12.9096 171.695 12.1974 171.41 11.7887 171.812Z" fill="#18EAFF"/>
<g opacity="0.5">
<path d="M12.2494 191.592C12.0974 191.592 11.953 191.532 11.8466 191.428L4.24732 183.947C4.02694 183.73 4.02694 183.371 4.24732 183.154L11.8466 175.674C12.0062 175.517 12.257 175.464 12.4698 175.554C12.6826 175.644 12.8194 175.846 12.8194 176.07V179.062C12.8194 179.212 12.7586 179.354 12.6522 179.459L8.49536 183.551L12.6522 187.642C12.7586 187.747 12.8194 187.889 12.8194 188.039V191.031C12.8194 191.255 12.6826 191.465 12.4698 191.547C12.3938 191.577 12.3254 191.592 12.2494 191.592ZM5.45563 183.551L11.6795 189.677V188.271L7.28705 183.947C7.06667 183.73 7.06667 183.371 7.28705 183.154L11.6795 178.83V177.424L5.45563 183.551Z" fill="#18EAFF"/>
<path d="M12.2496 191.592C12.1736 191.592 12.1052 191.577 12.0292 191.547C11.8164 191.457 11.6797 191.255 11.6797 191.031V188.039C11.6797 187.889 11.7405 187.747 11.8469 187.642L16.0037 183.551L11.8469 179.459C11.7405 179.354 11.6797 179.212 11.6797 179.062V176.07C11.6797 175.846 11.8164 175.636 12.0292 175.554C12.242 175.464 12.4852 175.517 12.6524 175.674L20.2517 183.154C20.4721 183.371 20.4721 183.73 20.2517 183.947L12.6524 191.428C12.546 191.532 12.4016 191.592 12.2496 191.592ZM12.8196 188.271V189.677L19.0434 183.551L12.8196 177.424V178.83L17.212 183.154C17.4324 183.371 17.4324 183.73 17.212 183.947L12.8196 188.271Z" fill="#18EAFF"/>
</g>
<path d="M250.782 127.524L258.51 135.132C258.686 135.305 258.686 135.574 258.51 135.747L250.782 143.355C250.51 143.623 250.035 143.433 250.035 143.052V140.81C250.035 140.698 250.079 140.585 250.167 140.507L255.003 135.747C255.178 135.574 255.178 135.305 255.003 135.132L250.167 130.372C250.088 130.294 250.035 130.181 250.035 130.069V127.827C250.035 127.446 250.51 127.256 250.782 127.524Z" fill="#18EAFF"/>
<path d="M250.165 127.524L242.437 135.132C242.261 135.305 242.261 135.574 242.437 135.747L250.165 143.355C250.446 143.623 250.912 143.433 250.912 143.052V140.81C250.912 140.698 250.868 140.585 250.78 140.507L245.944 135.747C245.769 135.574 245.769 135.305 245.944 135.132L250.78 130.372C250.859 130.294 250.912 130.181 250.912 130.069V127.827C250.912 127.446 250.437 127.256 250.165 127.524Z" fill="#18EAFF"/>
<g opacity="0.5">
<path d="M250.473 140.711C250.371 140.711 250.275 140.671 250.204 140.601L245.138 135.614C244.991 135.469 244.991 135.23 245.138 135.085L250.204 130.098C250.311 129.994 250.478 129.959 250.62 130.019C250.762 130.078 250.853 130.213 250.853 130.363V132.358C250.853 132.457 250.812 132.552 250.741 132.622L247.97 135.35L250.741 138.078C250.812 138.147 250.853 138.242 250.853 138.342V140.337C250.853 140.486 250.762 140.626 250.62 140.681C250.569 140.701 250.523 140.711 250.473 140.711ZM245.943 135.35L250.093 139.434V138.496L247.164 135.614C247.017 135.469 247.017 135.23 247.164 135.085L250.093 132.203V131.265L245.943 135.35Z" fill="#18EAFF"/>
<path d="M250.47 140.711C250.419 140.711 250.374 140.701 250.323 140.681C250.181 140.621 250.09 140.486 250.09 140.337V138.342C250.09 138.242 250.13 138.147 250.201 138.078L252.973 135.35L250.201 132.622C250.13 132.552 250.09 132.457 250.09 132.358V130.363C250.09 130.213 250.181 130.074 250.323 130.019C250.465 129.959 250.627 129.994 250.738 130.098L255.805 135.085C255.952 135.23 255.952 135.469 255.805 135.614L250.738 140.601C250.667 140.671 250.571 140.711 250.47 140.711ZM250.85 138.497V139.434L254.999 135.35L250.85 131.265V132.203L253.778 135.085C253.925 135.23 253.925 135.469 253.778 135.614L250.85 138.497Z" fill="#18EAFF"/>
</g>
<path d="M8.47775 49.7948L16.2058 57.403C16.3816 57.5761 16.3816 57.8444 16.2058 58.0175L8.47775 65.6258C8.20521 65.8941 7.73047 65.7037 7.73047 65.3228V63.081C7.73047 62.9685 7.7744 62.856 7.86231 62.7781L12.6978 58.0175C12.8737 57.8444 12.8737 57.5761 12.6978 57.403L7.86231 52.6425C7.78319 52.5646 7.73047 52.452 7.73047 52.3395V50.0977C7.73047 49.7169 8.20521 49.5265 8.47775 49.7948Z" fill="#18EAFF"/>
<path d="M7.85987 49.7948L0.131877 57.403C-0.0439591 57.5761 -0.0439591 57.8444 0.131877 58.0175L7.85987 65.6258C8.14121 65.8941 8.60721 65.7037 8.60721 65.3228V63.081C8.60721 62.9685 8.56323 62.856 8.47531 62.7781L3.63981 58.0175C3.46397 57.8444 3.46397 57.5761 3.63981 57.403L8.47531 52.6425C8.55444 52.5646 8.60721 52.452 8.60721 52.3395V50.0977C8.60721 49.7169 8.13242 49.5265 7.85987 49.7948Z" fill="#18EAFF"/>
<g opacity="0.5">
<path d="M8.16812 62.9815C8.06679 62.9815 7.97051 62.9416 7.89957 62.8718L2.83286 57.8848C2.68592 57.7401 2.68592 57.5008 2.83286 57.3562L7.89957 52.3692C8.00597 52.2644 8.17318 52.2295 8.31505 52.2894C8.45692 52.3492 8.54813 52.4839 8.54813 52.6335V54.6283C8.54813 54.728 8.50758 54.8228 8.43664 54.8926L5.66516 57.6205L8.43664 60.3483C8.50758 60.4182 8.54813 60.5129 8.54813 60.6127V62.6074C8.54813 62.7571 8.45692 62.8967 8.31505 62.9515C8.26438 62.9715 8.21879 62.9815 8.16812 62.9815ZM3.63848 57.6205L7.78812 61.7048V60.7672L4.85954 57.8848C4.71261 57.7401 4.71261 57.5008 4.85954 57.3562L7.78812 54.4737V53.5361L3.63848 57.6205Z" fill="#18EAFF"/>
<path d="M8.16516 62.9815C8.11449 62.9815 8.06887 62.9716 8.01821 62.9516C7.87634 62.8918 7.78516 62.7571 7.78516 62.6075V60.6127C7.78516 60.513 7.82568 60.4182 7.89661 60.3484L10.6681 57.6205L7.89661 54.8926C7.82568 54.8228 7.78516 54.7281 7.78516 54.6283V52.6335C7.78516 52.4839 7.87634 52.3443 8.01821 52.2894C8.16007 52.2296 8.32221 52.2645 8.43368 52.3692L13.5004 57.3562C13.6473 57.5008 13.6473 57.7402 13.5004 57.8848L8.43368 62.8718C8.36275 62.9416 8.26649 62.9815 8.16516 62.9815ZM8.54516 60.7673V61.7049L12.6948 57.6205L8.54516 53.5362V54.4737L11.4737 57.3562C11.6206 57.5008 11.6206 57.7402 11.4737 57.8848L8.54516 60.7673Z" fill="#18EAFF"/>
</g>
<ellipse opacity="0.4" cx="126.316" cy="108.031" rx="109.695" ry="108.031" fill="url(#paint0_linear_310_1186)"/>
<ellipse cx="126.317" cy="108.031" rx="71.6374" ry="70.5509" fill="#18EAFF"/>
<path d="M99.4492 108.766L118.105 127.139L155.416 90.3933" fill="#18EAFF"/>
<path d="M99.4492 108.766L118.105 127.139L155.416 90.3933" stroke="#0C0C12" stroke-width="10" stroke-linecap="square" stroke-linejoin="round"/>
<defs>
<linearGradient id="paint0_linear_310_1186" x1="59.8944" y1="0.0832671" x2="235.497" y2="0.0832638" gradientUnits="userSpaceOnUse">
<stop stop-color="#18EAFF" stop-opacity="0.53"/>
<stop offset="1" stop-color="#18EAFF"/>
</linearGradient>
</defs>
</svg>
