<svg width="44" height="44" viewBox="0 0 44 44" fill="none" xmlns="http://www.w3.org/2000/svg">
<path d="M29.2724 40.9087C28.6599 40.9087 28.0654 40.7286 27.543 40.3863L19.8687 35.2701H16.464C16.0496 35.2701 15.6533 35.072 15.4011 34.7477C15.1489 34.4055 15.0588 33.9731 15.1669 33.5767C15.275 33.1444 15.329 32.712 15.329 32.2437C15.329 30.8025 14.7886 29.4154 13.8158 28.3345C12.7169 27.0915 11.1496 26.3889 9.47426 26.3889C7.87096 26.3889 6.39372 27.0194 5.27681 28.1543C4.93453 28.5146 4.41212 28.6407 3.94374 28.5146C3.47535 28.3705 3.09705 27.9922 2.98896 27.5058C2.80881 26.7131 2.71875 25.8484 2.71875 24.9117V14.1028C2.71875 7.90578 6.88015 3.74438 13.0772 3.74438H31.0919C37.289 3.74438 41.4504 7.90578 41.4504 14.1028V24.9117C41.4504 27.9201 40.4595 30.5142 38.568 32.4057C36.9827 33.991 34.875 34.9459 32.443 35.1981V37.7562C32.443 38.9271 31.7944 39.99 30.7676 40.5484C30.2812 40.7826 29.7768 40.9087 29.2724 40.9087ZM18.0132 32.5499H20.2651C20.5353 32.5499 20.7875 32.622 21.0217 32.7841L29.0382 38.1345C29.2364 38.2606 29.3985 38.2065 29.4886 38.1524C29.5786 38.0984 29.7408 37.9903 29.7408 37.7381V33.901C29.7408 33.1624 30.3533 32.5499 31.0919 32.5499C33.3798 32.5499 35.3073 31.8294 36.6584 30.4783C38.0276 29.1091 38.7482 27.1815 38.7482 24.8936V14.0848C38.7482 9.43701 35.7397 6.42856 31.0919 6.42856H13.0772C8.42941 6.42856 5.42096 9.43701 5.42096 14.0848V24.6775C6.64596 24.0109 8.03309 23.6686 9.47426 23.6686C11.9243 23.6686 14.2482 24.7135 15.8335 26.515C17.2386 28.0823 18.0312 30.0999 18.0312 32.2256C18.0132 32.3337 18.0132 32.4418 18.0132 32.5499Z" fill="white"/>
<path d="M9.45542 40.7827C6.46498 40.7827 3.65469 39.1974 2.14146 36.6213C1.33079 35.3242 0.898438 33.793 0.898438 32.2257C0.898438 29.5955 2.06939 27.1635 4.10505 25.5422C5.61829 24.3352 7.52785 23.6687 9.45542 23.6687C14.1753 23.6687 18.0124 27.5058 18.0124 32.2257C18.0124 33.793 17.5801 35.3242 16.7694 36.6393C16.319 37.3959 15.7425 38.0805 15.058 38.6569C13.5627 40.0261 11.5631 40.7827 9.45542 40.7827ZM9.45542 26.3709C8.12233 26.3709 6.86131 26.8212 5.79844 27.6679C4.41131 28.7668 3.60064 30.4422 3.60064 32.2257C3.60064 33.2886 3.88888 34.3334 4.44734 35.2341C5.49219 36.9996 7.41976 38.0805 9.45542 38.0805C10.8786 38.0805 12.2477 37.558 13.2926 36.6213C13.7609 36.225 14.1572 35.7566 14.4455 35.2521C15.0219 34.3334 15.3102 33.2886 15.3102 32.2257C15.3102 29.0011 12.6801 26.3709 9.45542 26.3709Z" fill="white"/>
<path d="M8.43082 35.3604C8.08854 35.3604 7.74626 35.2344 7.47604 34.9642L5.6926 33.1807C5.17017 32.6583 5.17017 31.7935 5.6926 31.2711C6.21503 30.7486 7.07973 30.7486 7.60216 31.2711L8.46688 32.1358L11.3492 29.4696C11.8896 28.9652 12.7543 29.0013 13.2587 29.5417C13.7632 30.0822 13.7272 30.9469 13.1867 31.4513L9.34958 35.0001C9.07936 35.2343 8.75508 35.3604 8.43082 35.3604Z" fill="white"/>
<path d="M28.3716 20.9666H15.7613C15.0227 20.9666 14.4102 20.3541 14.4102 19.6155C14.4102 18.8769 15.0227 18.2644 15.7613 18.2644H28.3716C29.1102 18.2644 29.7227 18.8769 29.7227 19.6155C29.7227 20.3541 29.1102 20.9666 28.3716 20.9666Z" fill="white"/>
</svg>
